<svg aria-hidden="true" style="position: absolute; width: 0; height: 0; overflow: hidden;" version="1.1" xmlns="http://www.w3.org/2000/svg" xmlns:xlink="http://www.w3.org/1999/xlink">
<defs>
<symbol id="icon-roup" viewBox="0 0 32 32">
<path d="M26.744 18.035c-0.113 0.086-0.209 0.454-0.153 0.619 0.093-0.213 0.105-0.42 0.153-0.619zM7.995 23.28c-0.123-0.101-0.212-0.23-0.305-0.357-0.019-0.026-0.041-0.054-0.071-0.025-0.025 0.024 0.002 0.048 0.020 0.066 0.041 0.044 0.092 0.076 0.127 0.128 0.097 0.142 0.185 0.291 0.323 0.4 0.022 0.017 0.039 0.058 0.072 0.028 0.024-0.022 0.013-0.063-0.005-0.084-0.050-0.056-0.107-0.105-0.161-0.157zM10.191 25.169c0.019 0.024 0.039 0.046 0.073 0.047 0.019 0 0.041-0.002 0.044-0.024 0.001-0.011-0.011-0.028-0.022-0.035-0.185-0.116-0.371-0.23-0.556-0.345-0.019-0.012-0.045-0.028-0.061-0.007-0.022 0.029 0.008 0.048 0.028 0.063 0.133 0.097 0.257 0.208 0.421 0.254 0.030 0.008 0.057 0.020 0.074 0.047zM10.4 25.245c0.004 0.061 0.021 0.080 0.043 0.096 0.159 0.114 0.354 0.165 0.509 0.287 0.006 0.004 0.013 0.007 0.021 0.008l0 0c0.026 0.004 0.059 0.041 0.077 0 0.015-0.032-0.019-0.050-0.043-0.070-0.174-0.15-0.408-0.18-0.607-0.32zM24.81 9.264c-0.16-0.259-0.394-0.447-0.528-0.711-0.018-0.036-0.058-0.054-0.096-0.025-0.035 0.027-0.035 0.068-0.012 0.102 0.018 0.027 0.044 0.051 0.071 0.072 0.177 0.141 0.343 0.294 0.471 0.483 0.020 0.031 0.040 0.064 0.095 0.079zM23.316 7.775c0.036 0.012 0.064 0.043 0.099 0.020 0.024-0.016 0.009-0.042-0.003-0.060-0.095-0.145-0.235-0.242-0.378-0.334-0.024-0.015-0.062-0.022-0.080 0.013-0.019 0.036-0.002 0.069 0.031 0.086 0.13 0.069 0.258 0.142 0.331 0.276zM25.955 11.051c-0.126-0.308-0.287-0.596-0.502-0.852 0.144 0.298 0.286 0.596 0.502 0.852zM26.785 17.763c0.074-0.086 0.102-0.204 0.106-0.299 0.009-0.226 0.060-0.448 0.061-0.673 0-0.030-0.002-0.060-0.007-0.089-0.002-0.012-0.016-0.030-0.027-0.032-0.024-0.005-0.030 0.018-0.034 0.036-0.015 0.081-0.050 0.167-0.023 0.245 0.050 0.142-0.014 0.275-0.014 0.413-0 0.136-0.063 0.26-0.063 0.399zM8.704 24.134c0.058 0.038 0.121 0.087 0.191 0.124 0.031 0.017 0.077 0.069 0.106 0.023 0.031-0.049-0.035-0.062-0.066-0.085-0.153-0.114-0.312-0.22-0.442-0.362-0.046-0.050-0.085-0.106-0.133-0.154-0.024-0.025-0.059-0.068-0.094-0.034-0.039 0.037 0 0.080 0.028 0.107 0.133 0.127 0.269 0.25 0.411 0.381zM26.788 14.347c-0.070 0.314 0.047 0.591 0.071 0.907 0.091-0.154 0.121-0.28 0.058-0.421-0.030-0.068-0.065-0.14-0.048-0.217 0.021-0.099-0.022-0.174-0.081-0.268zM24.602 22.609c-0.003-0.002-0.011-0.008-0.020-0.014l-0.006-0.004c-0.010 0.010-0.021 0.019-0.031 0.029-0.168 0.178-0.335 0.357-0.503 0.534-0.036 0.038-0.083 0.067-0.082 0.128 0 0.006 0.017 0.018 0.025 0.016 0.059-0.010 0.094-0.049 0.135-0.092 0.083-0.088 0.143-0.203 0.259-0.257 0.149-0.070 0.161-0.22 0.223-0.341zM23.356 23.914c0.124-0.060 0.24-0.086 0.335-0.159 0.013-0.011 0.029-0.031 0.028-0.046-0.011-0.090 0.052-0.135 0.104-0.188 0.042-0.043 0.1-0.12 0.060-0.151-0.046-0.037-0.127 0.014-0.167 0.069-0.042 0.058-0.091 0.106-0.138 0.157-0.080 0.088-0.177 0.169-0.223 0.317zM26.519 18.868c-0.018 0.159-0.171 0.263-0.159 0.437 0.009 0.117-0.028 0.233-0.1 0.33-0.085 0.114-0.098 0.261-0.179 0.377-0.017 0.024-0.016 0.058 0.027 0.083 0.028-0.098 0.15-0.142 0.158-0.237 0.016-0.199 0.127-0.359 0.184-0.541 0.045-0.144 0.116-0.285 0.069-0.449zM22.363 7.021c0.164 0.132 0.321 0.219 0.48 0.304 0.022 0.012 0.055 0.024 0.070-0.007 0.015-0.030-0.014-0.049-0.035-0.063 0.067 0.035-0.181-0.135-0.43-0.305l-0.332-0.213c-0.036-0.024-0.087-0.028-0.11 0.015-0.019 0.037 0.022 0.053 0.052 0.072 0.111 0.068 0.22 0.141 0.305 0.196zM23.252 24.034c-0.106-0.009-0.155 0.028-0.2 0.074-0.115 0.119-0.228 0.24-0.385 0.309-0.045 0.020-0.090 0.056-0.105 0.113-0.011 0.039-0.042 0.059-0.076 0.079-0.078 0.046-0.153 0.096-0.229 0.145-0.045 0.029-0.075 0.068-0.080 0.164 0.381-0.285 0.74-0.546 1.075-0.884zM20.997 25.608c-0.098-0.026-0.175-0.047-0.214 0.059-0.007 0.019-0.025 0.034-0.043 0.030-0.132-0.026-0.227 0.070-0.338 0.108-0.087 0.030-0.189 0.036-0.261 0.098-0.132 0.113-0.291 0.154-0.453 0.189-0.042 0.009-0.080 0.023-0.112 0.049-0.017 0.014-0.038 0.031-0.020 0.056 0.012 0.018 0.034 0.017 0.051 0.010 0.045-0.019 0.092-0.036 0.132-0.063 0.135-0.091 0.29-0.121 0.445-0.153 0.063-0.013 0.131-0.022 0.147 0.073 0.007 0.041 0.043 0.039 0.072 0.024 0.034-0.018 0.024-0.040 0-0.062-0.054-0.050 0-0.063 0.028-0.092 0.153-0.159 0.371-0.204 0.568-0.328zM5.106 15.769c0.025 0.116-0.052 0.197-0.036 0.282 0.037 0.196 0.012 0.4 0.084 0.59 0.016 0.041 0 0.081-0.007 0.122-0.022 0.122 0.004 0.211 0.070 0.254 0.030-0.145-0.018-0.293-0.002-0.433 0.019-0.169 0.021-0.337 0.024-0.506 0.002-0.111-0.027-0.213-0.134-0.309zM5.737 19.567c0.021-0.061 0.009-0.090 0-0.118-0.080-0.275-0.176-0.543-0.231-0.827-0.036-0.187-0.063-0.377-0.108-0.563-0.070-0.29-0.090-0.592-0.131-0.889-0.003-0.025 0.003-0.060-0.036-0.057-0.032 0.002-0.039 0.032-0.037 0.060 0.011 0.131 0.021 0.262 0.034 0.393 0.007 0.068 0.060 0.123 0.056 0.194-0.011 0.207 0.061 0.4 0.1 0.599 0.046 0.235 0.101 0.467 0.147 0.702 0.034 0.176 0.112 0.332 0.205 0.506zM23.128 7.813c-0.018-0.014-0.034-0.031-0.053-0.042-0.032-0.018-0.061-0.082-0.1-0.035-0.028 0.034-0.029 0.095 0.003 0.138 0.020 0.027 0.047 0.050 0.074 0.069 0.3 0.204 0.537 0.48 0.802 0.722 0.19 0.174 0.389 0.359 0.507 0.602 0.015 0.031 0.041 0.062 0.006 0.091-0.030 0.026-0.067 0.013-0.093-0.011-0.039-0.035-0.072-0.076-0.11-0.113-0.019-0.018-0.045-0.037-0.071-0.019-0.031 0.022-0.021 0.056-0.004 0.081 0.053 0.078 0.102 0.159 0.163 0.23 0.215 0.248 0.418 0.505 0.6 0.778 0.082 0.122 0.174 0.237 0.247 0.365 0.016 0.028 0.049 0.074 0.089 0.046 0.034-0.024 0.003-0.062-0.013-0.091-0.026-0.043-0.042-0.095-0.044-0.151v-0.001c-0.001-0.034-0.033-0.081 0.015-0.101 0.046-0.019 0.077 0.021 0.101 0.055 0.101 0.14 0.204 0.28 0.272 0.44 0.014 0.033 0.016 0.103 0.073 0.077 0.055-0.025 0.017-0.080-0.001-0.119-0.012-0.026-0.038-0.046-0.056-0.070-0.070-0.097-0.147-0.19-0.207-0.293-0.112-0.191-0.221-0.385-0.319-0.584-0.058-0.119-0.156-0.201-0.237-0.298-0.134-0.161-0.201-0.39-0.43-0.464-0.018-0.006-0.034-0.031-0.042-0.051-0.058-0.162-0.163-0.287-0.283-0.41-0.286-0.293-0.561-0.597-0.891-0.845zM20.973 6.119c0.039 0.045 0.057 0.104 0.112 0.14 0.175 0.112 0.369 0.186 0.552 0.283 0.063 0.034 0.114 0.094 0.19 0.108 0.012-0.035-0.012-0.047-0.025-0.063-0.115-0.144-0.289-0.202-0.442-0.286-0.124-0.067-0.237-0.165-0.386-0.182-0.281-0.154-0.566-0.289-0.872-0.394-0.241-0.082-0.478-0.179-0.723-0.254-0.158-0.049-0.318-0.069-0.486-0.1 0.016 0.055 0.043 0.078 0.081 0.091 0.163 0.058 0.322 0.132 0.49 0.173 0.38 0.094 0.741 0.237 1.106 0.372 0.13 0.048 0.247 0.159 0.405 0.112zM15.619 26.767c0.103 0.032 0.202 0.062 0.308 0.045 0.063-0.010 0.103-0.041 0.102-0.113-0.002-0.11 0.070-0.155 0.163-0.139 0.215 0.036 0.419-0.029 0.627-0.055 0.141-0.018 0.285-0.010 0.424-0.050 0.211-0.061 0.44-0.023 0.645-0.090 0.151-0.050 0.295-0.061 0.449-0.077 0.198-0.020 0.39-0.109 0.583-0.174 0.065-0.022 0.128-0.044 0.197-0.045 0.050-0 0.1-0.010 0.142-0.035 0.206-0.124 0.438-0.183 0.663-0.249 0.199-0.058 0.387-0.144 0.582-0.209 0.141-0.047 0.269-0.133 0.401-0.205 0.23-0.126 0.46-0.254 0.689-0.382 0.109-0.061 0.195-0.155 0.296-0.221 0.194-0.126 0.384-0.257 0.575-0.388 0.088-0.061 0.186-0.103 0.25-0.202 0.054-0.083 0.174-0.093 0.247-0.172 0.125-0.135 0.245-0.286 0.41-0.368 0.158-0.078 0.228-0.231 0.351-0.336s0.213-0.251 0.319-0.378c0.17-0.203 0.294-0.348 0.419-0.492l-0.039 0.046c0.045-0.052 0.077-0.098 0.025-0.168-0.036-0.049-0.021-0.1 0.050-0.102 0.246-0.008 0.345-0.187 0.431-0.373 0.028-0.061 0.064-0.109 0.111-0.152 0.020-0.018 0.045-0.034 0.070-0.009 0.019 0.018 0.013 0.042 0.003 0.063-0.004 0.011-0.010 0.021-0.017 0.030l0-0c-0.131 0.153-0.179 0.352-0.282 0.52-0.025 0.041-0.061 0.066-0.093 0.097-0.014 0.013-0.027 0.030-0.016 0.049 0.016 0.026 0.043 0.018 0.059 0.005 0.029-0.023 0.055-0.052 0.080-0.080 0.121-0.134 0.206-0.299 0.355-0.409 0.020-0.016 0.034-0.040 0.038-0.067l0-0.001c0.019-0.183 0.125-0.327 0.21-0.479 0.056-0.099 0.148-0.149 0.261-0.149 0.041 0 0.075 0.007 0.089-0.041 0.010-0.033 0.005-0.042-0.036-0.046-0.179-0.015-0.288 0.1-0.404 0.205-0.013 0.011-0.027 0.023-0.041 0.034l-0.002 0.001c-0.002 0.002-0.007 0-0.020 0-0.017-0.148 0.030-0.277 0.113-0.396 0.114-0.164 0.232-0.325 0.307-0.512 0.033-0.082 0.064-0.161 0.062-0.25-0-0.002-0-0.004-0-0.006 0-0.030 0.010-0.057 0.028-0.078l-0 0c0.176-0.222 0.251-0.485 0.31-0.755 0.006-0.026 0.005-0.058 0.020-0.076 0.172-0.203 0.149-0.487 0.297-0.7 0.012-0.018 0.023-0.042 0.022-0.063-0.006-0.175 0.077-0.335 0.092-0.504 0.016-0.184 0.045-0.366 0.067-0.549 0.044-0.374 0.105-0.745 0.118-1.122 0.008-0.233-0.006-0.466-0.032-0.697-0.020-0.181 0.005-0.361-0.001-0.541-0.007-0.249-0.087-0.48-0.126-0.72-0.018-0.108-0.018-0.193 0.1-0.243 0.057-0.024 0.080-0.087 0.073-0.143-0.031-0.231-0.044-0.464-0.109-0.69-0.008-0.027-0.020-0.049-0.052-0.050-0.022 0.176 0.068 0.341 0.042 0.519-0.008 0.058 0.067 0.108 0.061 0.178-0.004 0.040 0.024 0.086-0.015 0.117-0.031 0.025-0.065 0.004-0.093-0.017-0.043-0.032-0.1-0.074-0.071-0.127 0.062-0.115-0.004-0.198-0.040-0.297-0.044-0.114-0.077-0.248-0.094-0.386l-0.001-0.008c-0.014-0.121-0.065-0.225-0.109-0.331-0.119-0.288-0.187-0.594-0.334-0.873-0.086-0.163-0.134-0.346-0.233-0.507-0.050-0.082-0.089-0.213-0.012-0.264 0.045-0.029 0.156 0.095 0.182 0.184 0.057 0.198 0.145 0.378 0.282 0.565-0.012-0.105 0.005-0.191-0.049-0.27-0.083-0.122-0.157-0.246-0.198-0.391-0.023-0.080-0.085-0.15-0.134-0.221-0.032-0.046-0.074-0.029-0.109-0.002-0.077 0.057-0.126 0.021-0.165-0.047-0.027-0.044-0.065-0.112-0.101-0.182l-0.013-0.027c-0.017-0.034-0.036-0.066-0.069-0.088-0.022-0.014-0.044-0.040-0.070-0.021s-0.010 0.047 0.003 0.071c0.080 0.15 0.135 0.315 0.218 0.458 0.092 0.159 0.177 0.315 0.249 0.485 0.157 0.374 0.331 0.739 0.4 1.143 0.024 0.141 0.096 0.27 0.115 0.413 0.007 0.048 0.033 0.111-0.025 0.13-0.049 0.016-0.090-0.037-0.11-0.081-0.030-0.062-0.057-0.136-0.079-0.213l-0.002-0.010c-0.077-0.296-0.196-0.577-0.287-0.867-0.057-0.181-0.146-0.345-0.205-0.522-0.024-0.070-0.069-0.134-0.103-0.201-0.15-0.294-0.263-0.608-0.453-0.88-0.128-0.183-0.242-0.385-0.445-0.504-0.015-0.009-0.030-0.027-0.033-0.043-0.033-0.205-0.193-0.33-0.31-0.478-0.272-0.342-0.579-0.653-0.886-0.964-0.060-0.061-0.106-0.137-0.156-0.207-0.027-0.039-0.047-0.086-0.001-0.121 0.043-0.033 0.090-0.010 0.123 0.023 0.090 0.091 0.185 0.179 0.27 0.273 0.123 0.135 0.269 0.251 0.366 0.41 0.032 0.053 0.104 0.054 0.142 0.031 0.048-0.030-0.013-0.069-0.026-0.104-0.020-0.053-0.072-0.075-0.11-0.11-0.193-0.18-0.376-0.366-0.602-0.512-0.159-0.102-0.281-0.261-0.422-0.39-0.268-0.245-0.575-0.437-0.865-0.652-0.194-0.144-0.399-0.269-0.605-0.392-0.056-0.033-0.109-0.069-0.144-0.125-0.019-0.030-0.061-0.059-0.029-0.099 0.025-0.031 0.063-0.012 0.095-0.003 0.114 0.031 0.216 0.087 0.316 0.149 0.446 0.277 0.811 0.526 1.164 0.787l-0.048-0.034c0.006 0.004 0.012 0.009 0.019 0.013 0.056 0.028 0.126 0.028 0.153-0.018 0.027-0.045-0.040-0.103-0.073-0.111-0.176-0.039-0.27-0.195-0.415-0.278-0.25-0.144-0.495-0.301-0.735-0.461-0.193-0.129-0.408-0.205-0.604-0.324-0.124-0.075-0.269-0.115-0.396-0.189-0.204-0.119-0.444-0.159-0.639-0.296-0.006-0.005-0.013-0.008-0.020-0.010l-0-0c-0.219-0.033-0.403-0.182-0.629-0.193-0.095-0.005-0.181-0.047-0.269-0.082-0.139-0.055-0.291-0.074-0.428-0.138-0.049-0.023-0.099-0.039-0.116-0.097-0.019-0.067 0.044-0.068 0.077-0.093 0.022-0.017 0.045-0.031 0.037-0.063-0.008-0.030-0.036-0.035-0.062-0.043-0.189-0.055-0.381-0.098-0.577-0.109-0.152-0.008-0.286-0.066-0.421-0.124-0.045-0.019-0.067-0.060-0.086-0.102-0.040-0.088 0.009-0.163 0.101-0.14 0.164 0.041 0.339 0.034 0.493 0.118 0.070 0.038 0.151 0.004 0.223 0.023 0.327 0.087 0.668 0.12 0.984 0.253 0.18 0.075 0.382 0.078 0.56 0.173 0.188 0.101 0.38 0.204 0.582 0.268 0.214 0.068 0.415 0.157 0.616 0.253 0.313 0.149 0.608 0.327 0.907 0.501 0.398 0.233 0.739 0.469 1.061 0.727l-0.017-0.013c0.226 0.181 0.45 0.363 0.657 0.568 0.16 0.159 0.346 0.292 0.485 0.472 0.274 0.354 0.611 0.654 0.846 1.042 0.138 0.227 0.348 0.41 0.485 0.638 0.16 0.266 0.334 0.524 0.477 0.803 0.11 0.214 0.198 0.438 0.318 0.648 0.157 0.273 0.266 0.572 0.338 0.88 0.043 0.181 0.158 0.33 0.195 0.516 0.058 0.29 0.188 0.562 0.19 0.867 0.001 0.090 0.054 0.18 0.086 0.268 0.029 0.081 0.046 0.164 0.007 0.243-0.036 0.072 0.006 0.133 0.018 0.197 0.028 0.158 0.041 0.318 0.109 0.471 0.043 0.096 0.052 0.218 0.010 0.331-0.032 0.085-0.048 0.169-0.011 0.263 0.036 0.091 0.027 0.183-0.047 0.263-0.072 0.077-0.063 0.155 0.018 0.226 0.059 0.052 0.082 0.121 0.061 0.195-0.054 0.19-0.003 0.374 0.020 0.56 0.017 0.135 0.009 0.264-0.081 0.372-0.046 0.055-0.056 0.102-0.013 0.161 0.067 0.090 0.027 0.192 0.023 0.287-0.012 0.301-0.067 0.584-0.159 0.851l0.006-0.021c-0.057 0.169-0.051 0.356-0.1 0.531-0.088 0.319-0.118 0.658-0.255 0.96-0.107 0.236-0.151 0.499-0.318 0.709-0.079 0.099-0.085 0.233-0.142 0.343-0.132 0.257-0.28 0.507-0.397 0.771-0.102 0.232-0.261 0.427-0.379 0.649-0.108 0.203-0.274 0.375-0.421 0.555-0.117 0.143-0.175 0.329-0.328 0.443-0.211 0.157-0.327 0.4-0.528 0.57-0.091 0.077-0.157 0.189-0.248 0.275-0.151 0.143-0.328 0.252-0.48 0.393-0.114 0.106-0.235 0.211-0.342 0.319-0.164 0.165-0.354 0.289-0.531 0.432-0.196 0.158-0.441 0.241-0.63 0.409-0.109 0.097-0.228 0.169-0.373 0.201-0.046 0.010-0.096 0.035-0.128 0.069-0.163 0.168-0.383 0.218-0.588 0.302-0.084 0.035-0.166 0.073-0.246 0.115-0.118 0.061-0.24 0.105-0.371 0.134-0.205 0.044-0.4 0.122-0.59 0.212-0.067 0.031-0.139 0.034-0.209 0.048-0.131 0.026-0.244 0.117-0.375 0.122-0.251 0.009-0.472 0.135-0.715 0.163-0.199 0.022-0.392 0.066-0.587 0.108-0.161 0.034-0.321 0.073-0.484 0.099-0.119 0.019-0.24 0.018-0.36 0.032-0.35 0.041-0.705-0.005-1.054 0.051-0.256 0.041-0.503-0.013-0.754-0.045-0.045-0.006-0.092-0.016-0.135-0.008-0.127 0.026-0.238-0.015-0.349-0.066-0.023-0.011-0.053-0.029-0.074-0.022-0.26 0.080-0.501-0.017-0.75-0.070-0.244-0.051-0.495-0.076-0.743-0.109-0.076-0.010-0.15-0.024-0.216-0.063-0.189-0.113-0.4-0.197-0.606-0.234-0.329-0.059-0.592-0.256-0.898-0.354-0.046-0.019-0.176-0.059-0.307-0.096l-0.083-0.020c-0.071-0.020-0.139-0.041-0.195-0.085-0.188-0.149-0.405-0.248-0.619-0.35-0.321-0.153-0.584-0.399-0.905-0.552-0.076-0.036-0.127-0.106-0.185-0.165-0.096-0.099-0.229-0.144-0.332-0.231-0.014-0.012-0.036-0.020-0.044-0.035-0.073-0.136-0.205-0.205-0.326-0.282-0.412-0.262-0.693-0.651-1.010-1.007-0.141-0.158-0.237-0.348-0.395-0.49-0.014-0.012-0.025-0.027-0.034-0.044l-0-0.001c-0.179-0.372-0.462-0.674-0.691-1.011-0.060-0.088-0.108-0.18-0.13-0.287-0.014-0.065-0.065-0.116-0.095-0.172-0.078-0.145-0.199-0.23-0.315-0.335-0.105-0.095-0.162-0.266-0.195-0.414-0.040-0.179-0.144-0.321-0.208-0.485-0.015-0.039-0.048-0.077-0.037-0.117 0.052-0.191-0.063-0.342-0.117-0.507-0.009-0.029-0.025-0.056-0.028-0.086-0.033-0.33-0.187-0.625-0.269-0.94-0.020-0.077-0.044-0.151-0.041-0.233 0.002-0.052 0-0.109-0.018-0.156-0.072-0.186-0.078-0.384-0.111-0.577-0.017-0.101-0.034-0.201-0.074-0.295-0.010-0.024-0.026-0.052-0.022-0.075 0.035-0.213-0.081-0.417-0.033-0.636 0.022-0.1-0.023-0.216-0.042-0.323-0.019-0.109-0.030-0.21 0.097-0.269 0.058-0.027 0.053-0.075-0.006-0.097-0.095-0.036-0.097-0.101-0.079-0.183 0.020-0.089 0.016-0.179 0.008-0.271-0.010-0.136-0.007-0.27 0.055-0.399 0.027-0.056 0.037-0.123 0.046-0.186 0.029-0.204 0.043-0.412 0.082-0.611 0.066-0.339 0.077-0.689 0.203-1.016 0.042-0.109 0.013-0.238 0.078-0.34 0.079-0.123 0.118-0.261 0.157-0.398 0.068-0.239 0.157-0.47 0.247-0.701 0.061-0.157 0.158-0.299 0.208-0.461 0.052-0.171 0.149-0.32 0.242-0.469 0.174-0.277 0.319-0.57 0.49-0.849 0.118-0.193 0.276-0.358 0.376-0.565 0.080-0.167 0.205-0.315 0.325-0.459 0.177-0.214 0.347-0.441 0.556-0.62 0.203-0.173 0.342-0.41 0.576-0.551 0.085-0.052 0.16-0.129 0.221-0.209 0.149-0.195 0.371-0.304 0.542-0.472 0.067-0.066 0.158-0.1 0.236-0.153 0.208-0.142 0.389-0.282 0.561-0.432l-0.007 0.006c0.096-0.084 0.222-0.11 0.325-0.181 0.223-0.154 0.456-0.296 0.705-0.403 0.226-0.097 0.439-0.217 0.653-0.336 0.046-0.025 0.097-0.051 0.147-0.056 0.269-0.030 0.489-0.19 0.739-0.273 0.222-0.073 0.434-0.173 0.669-0.203 0.143-0.018 0.282-0.060 0.413-0.117 0.094-0.041 0.193-0.030 0.289-0.046 0.174-0.030 0.341-0.093 0.521-0.102 0.158-0.008 0.314-0.038 0.469-0.075 0.243-0.058 0.493-0.032 0.74-0.040 0.022-0.001 0.047 0.010 0.067 0.005 0.261-0.069 0.52-0.045 0.784-0.010 0.279 0.036 0.564 0.002 0.846 0.024 0.101 0.008 0.167 0.055 0.22 0.137 0.050 0.077 0.025 0.129-0.053 0.143-0.12 0.022-0.24 0.056-0.367 0.008-0.15-0.056-0.301-0.066-0.465-0.028-0.183 0.043-0.376 0.009-0.562-0.012-0.070-0.008-0.139-0.027-0.211-0.022-0.289 0.023-0.579 0.018-0.866 0.066-0.092 0.015-0.181 0.047-0.272 0.069-0.029 0.007-0.062 0.018-0.089 0.011-0.281-0.064-0.53 0.088-0.796 0.119-0.326 0.038-0.625 0.196-0.959 0.209-0.103 0.004-0.204 0.090-0.305 0.139-0.020 0.010-0.036 0.032-0.057 0.037-0.349 0.081-0.634 0.333-0.995 0.38-0.125 0.016-0.2 0.115-0.3 0.171-0.152 0.084-0.306 0.163-0.471 0.219-0.309 0.105-0.545 0.326-0.798 0.52-0.021 0.016-0.040 0.036-0.062 0.049-0.406 0.235-0.73 0.574-1.096 0.861-0.393 0.308-0.733 0.672-1.074 1.033-0.107 0.113-0.197 0.247-0.289 0.376-0.283 0.395-0.589 0.776-0.826 1.2-0.214 0.384-0.447 0.758-0.616 1.166-0.109 0.263-0.225 0.523-0.307 0.796-0.010 0.032-0.021 0.065-0.029 0.098-0.005 0.021-0.013 0.048 0.013 0.060s0.041-0.012 0.054-0.030c0.063-0.090 0.105-0.191 0.146-0.292 0.119-0.296 0.213-0.606 0.362-0.886 0.143-0.269 0.256-0.563 0.486-0.781 0.015-0.014 0.019-0.040 0.029-0.060 0.061-0.134 0.116-0.268 0.232-0.37 0.1-0.088 0.135-0.224 0.21-0.334 0.103-0.152 0.242-0.269 0.356-0.409 0.009-0.012 0.025-0.019 0.032-0.032 0.209-0.381 0.563-0.635 0.846-0.95 0.107-0.12 0.23-0.223 0.365-0.307l0.007-0.004c0.133-0.082 0.21-0.226 0.347-0.304 0.019-0.011 0.034-0.031 0.054-0.041 0.038-0.018 0.083-0.035 0.112 0.009 0.026 0.038-0.001 0.072-0.029 0.099-0.139 0.138-0.281 0.272-0.448 0.377-0.107 0.068-0.198 0.15-0.271 0.254-0.072 0.103-0.168 0.182-0.259 0.267-0.159 0.148-0.312 0.301-0.443 0.479-0.124 0.168-0.255 0.336-0.399 0.488-0.098 0.103-0.164 0.223-0.232 0.345-0.051 0.092-0.104 0.185-0.167 0.268-0.146 0.191-0.311 0.37-0.409 0.592-0.103 0.232-0.283 0.424-0.35 0.675-0.016 0.061-0.053 0.116-0.081 0.174-0.17 0.353-0.309 0.719-0.432 1.090-0.071 0.214-0.114 0.437-0.176 0.654-0.038 0.13-0.054 0.263-0.095 0.393-0.077 0.244-0.103 0.5-0.136 0.752-0.016 0.119-0.025 0.24-0.052 0.357-0.051 0.222-0.052 0.445-0.022 0.684 0.073-0.038 0.097-0.092 0.11-0.157 0.017-0.088 0.037-0.162 0.060-0.233l-0.004 0.014c0.010-0.031 0.009-0.088 0.062-0.078 0.046 0.009 0.040 0.061 0.040 0.096 0 0.105 0.007 0.212-0.001 0.316-0.018 0.232-0.021 0.464-0.038 0.696-0.011 0.157 0.001 0.324 0.043 0.481 0.022 0.081 0.040 0.164 0.030 0.246-0.029 0.256 0.037 0.502 0.085 0.748 0.024 0.123 0.013 0.248 0.052 0.369 0.071 0.218 0.117 0.443 0.185 0.663 0.112 0.364 0.241 0.722 0.362 1.083 0.031 0.092 0.041 0.192 0.058 0.288 0.009 0.051-0.012 0.094-0.063 0.106-0.114 0.028-0.090 0.103-0.046 0.162 0.090 0.12 0.083 0.215-0.036 0.309-0.057 0.045-0.002 0.226 0.068 0.248 0.055 0.018 0.042-0.024 0.043-0.052 0.001-0.043-0.034-0.099 0.019-0.124 0.058-0.027 0.11 0.016 0.152 0.052 0.097 0.080 0.119 0.207 0.184 0.309 0.056 0.088 0.101 0.184 0.164 0.27 0.009-0.091-0.035-0.166-0.084-0.236-0.152-0.217-0.249-0.46-0.335-0.708-0.009-0.026-0.019-0.055 0.012-0.070 0.038-0.019 0.065 0.007 0.084 0.038 0.072 0.115 0.155 0.225 0.211 0.348 0.067 0.146 0.172 0.276 0.191 0.444 0.012 0.104 0.104 0.163 0.159 0.242 0.174 0.248 0.342 0.5 0.511 0.752 0.184 0.274 0.365 0.554 0.627 0.769 0.154 0.126 0.26 0.3 0.39 0.451 0.017 0.020 0.028 0.049 0.050 0.061 0.236 0.132 0.363 0.39 0.584 0.528 0.192 0.12 0.346 0.286 0.55 0.392 0.181 0.094 0.323 0.262 0.503 0.361 0.192 0.106 0.356 0.256 0.566 0.335 0.156 0.059 0.295 0.161 0.447 0.234 0.358 0.171 0.738 0.289 1.093 0.46 0.359 0.173 0.749 0.224 1.12 0.347 0.145 0.048 0.3 0.066 0.451 0.097 0.002-0.015 0.006-0.025 0.003-0.029-0.046-0.058-0.095-0.129-0.063-0.194 0.037-0.074 0.13-0.050 0.197-0.042 0.268 0.031 0.484 0.064 0.698 0.104l-0.064-0.010c0.101 0.019 0.206-0.011 0.302 0.035 0.043 0.021 0.108 0.028 0.105 0.088-0.003 0.061-0.070 0.059-0.114 0.075s-0.089 0.011-0.134 0.001c-0.18-0.039-0.361-0.077-0.542-0.115-0.024-0.005-0.051-0.009-0.080-0.009s-0.054 0.003-0.080 0.009l0.002-0c-0.041 0.009-0.070 0.030-0.066 0.077 0.004 0.043 0.029 0.072 0.072 0.074 0.289 0.017 0.571 0.111 0.865 0.076 0.104-0.012 0.195 0.052 0.299 0.051 0.155-0.001 0.31-0.013 0.464 0.017 0.022 0.004 0.045 0.006 0.067 0.013 0.041 0.013 0.082 0.034 0.082 0.082 0 0.052-0.047 0.062-0.087 0.074-0.027 0.008-0.062-0.006-0.090 0.036z"></path>
<path d="M7.841 17.029c0.006-0.091-0.024-0.154-0.023-0.221 0.003-0.178 0.005-0.357-0.018-0.534-0.004-0.034-0.008-0.079-0.049-0.076-0.054 0.003-0.025 0.049-0.024 0.079 0.009 0.167 0.066 0.329 0.043 0.502-0.010 0.072 0.013 0.16 0.071 0.251zM16.821 23.689c0.173 0.009 0.319-0.049 0.47-0.055 0.018-0.001 0.039-0.012 0.032-0.037-0.007-0.022-0.027-0.038-0.050-0.040h-0c-0.157-0.007-0.324-0.049-0.452 0.131zM22.164 10.835c0.023 0.16 0.334 0.513 0.447 0.522-0.078-0.237-0.31-0.338-0.447-0.522zM22.642 20.586c-0.116 0.106-0.176 0.216-0.269 0.345 0.065-0.024 0.139-0.038 0.217-0.038 0.018 0 0.037 0.001 0.055 0.002l-0.002-0c0.044 0.003 0.063-0.034 0.078-0.070 0.010-0.023 0.010-0.048-0.016-0.057-0.079-0.028-0.074-0.092-0.063-0.183zM14.945 23.644c0.004 0.007 0.005 0.017 0.011 0.020 0.204 0.103 0.42 0.074 0.634 0.051 0.019-0.002 0.040-0.009 0.036-0.033-0.006-0.032-0.035-0.032-0.062-0.035-0.179-0.021-0.36 0.008-0.538-0.024-0.026-0.005-0.061-0.010-0.080 0.023zM23.085 12.115c0.021-0.043 0.018-0.079-0.001-0.099-0.093-0.101-0.131-0.234-0.2-0.348-0.025-0.042-0.053-0.081-0.082-0.12-0.017-0.024-0.042-0.033-0.069-0.017-0.033 0.018-0.022 0.045-0.006 0.067 0.024 0.035 0.030 0.079 0.051 0.111 0.092 0.14 0.136 0.318 0.308 0.407zM21.889 21.459c-0.086 0.060-0.12 0.158-0.195 0.2-0.214 0.12-0.362 0.319-0.564 0.452-0.053 0.035-0.102 0.077-0.139 0.131-0.020 0.031-0.013 0.055 0.026 0.049 0.056-0.008 0.132-0.034 0.142-0.076 0.041-0.165 0.209-0.191 0.301-0.299 0.095-0.112 0.272-0.143 0.323-0.308 0.006-0.018 0.033-0.030 0.051-0.043 0.033-0.022 0.057-0.048 0.054-0.107zM19.447 22.946c0.032 0.016 0.060 0.002 0.087-0.012 0.21-0.11 0.421-0.22 0.63-0.333 0.036-0.019 0.104-0.040 0.079-0.089-0.022-0.044-0.086-0.027-0.132-0.005-0.017 0.008-0.037 0.016-0.047 0.030-0.063 0.083-0.156 0.118-0.248 0.147-0.128 0.040-0.213 0.154-0.342 0.191-0.024 0.007-0.052 0.034-0.027 0.070zM12.168 23.254c0.033 0.035 0.079 0.049 0.11 0.015 0.072-0.080 0.15-0.066 0.236-0.035 0.025 0.009 0.065 0.025 0.071-0.020 0.005-0.034-0.026-0.052-0.060-0.054-0.081-0.004-0.143-0.049-0.196-0.1-0.072-0.069-0.167-0.058-0.25-0.089-0.027-0.010-0.065 0.009-0.044 0.039 0.053 0.077 0.067 0.174 0.133 0.244zM8.766 19.361c-0.066-0.188-0.125-0.361-0.188-0.533-0.066-0.181-0.164-0.351-0.179-0.548-0.003-0.034-0.022-0.063-0.058-0.053-0.041 0.012-0.026 0.047-0.014 0.075 0.076 0.184 0.104 0.382 0.162 0.572 0.047 0.157 0.149 0.28 0.201 0.43 0.008 0.023 0.027 0.045 0.076 0.057zM23.953 14.612c0.013-0.089 0.028-0.179 0.037-0.269 0.002-0.018-0.015-0.044-0.031-0.058-0.092-0.075-0.099-0.177-0.104-0.286-0.005-0.115-0.025-0.231-0.088-0.333-0.014-0.022-0.022-0.053-0.056-0.045s-0.044 0.037-0.046 0.069c-0.002 0.062 0.023 0.117 0.044 0.173 0.061 0.167 0.163 0.321 0.144 0.512-0.009 0.087 0.048 0.159 0.101 0.235zM23.244 18.778c-0.029 0.035-0.058 0.069-0.066 0.116-0.033 0.188-0.127 0.352-0.208 0.521-0.026 0.054-0.061 0.136 0 0.16s0.089-0.065 0.109-0.118c0.036-0.099 0.071-0.196 0.124-0.288 0.069-0.12 0.117-0.252 0.172-0.38 0.012-0.028 0.022-0.062-0.008-0.083-0.036-0.026-0.063 0.003-0.087 0.028-0.013 0.013-0.024 0.029-0.036 0.044zM23.063 12.691c-0.019 0.062 0.006 0.113 0.026 0.164 0.096 0.243 0.21 0.478 0.277 0.733 0.034 0.129 0.075 0.258 0.122 0.385 0.009 0.024 0.018 0.054 0.052 0.049 0.036-0.005 0.034-0.035 0.031-0.062-0.009-0.117-0.020-0.233-0.084-0.336-0.047-0.076-0.077-0.158-0.073-0.245 0.005-0.098-0.036-0.162-0.112-0.217-0.041-0.030-0.106-0.065-0.090-0.12 0.047-0.163-0.109-0.23-0.15-0.351zM8.033 16.214c-0.116 0.151 0.1 1.61 0.253 1.743-0.151-0.565-0.172-1.149-0.253-1.743zM24.009 17.062c0.045 0.005 0.060-0.028 0.072-0.062 0.033-0.094 0.007-0.194 0.024-0.287 0.026-0.14 0.077-0.275 0.021-0.419-0.009-0.023 0-0.052-0.001-0.078-0.017-0.28-0.008-0.561-0.060-0.838-0.004-0.023-0.008-0.051-0.033-0.053-0.038-0.003-0.035 0.033-0.037 0.058-0.002 0.037-0.003 0.075 0.001 0.113 0.019 0.174 0.070 0.344 0.048 0.522-0.010 0.077-0.021 0.158-0.011 0.234 0.029 0.223 0.013 0.441-0.036 0.659-0.011 0.047-0.012 0.097 0.012 0.153zM23.563 13.375c0.032 0.038 0.053 0.059 0.081 0.040 0.039-0.026 0.029-0.062 0.018-0.101-0.052-0.191-0.179-0.356-0.189-0.561-0.002-0.016-0.009-0.030-0.019-0.040l0 0c-0.104-0.114-0.151-0.259-0.216-0.394-0.019-0.040-0.032-0.113-0.097-0.079-0.062 0.032-0.029 0.091-0.005 0.139 0.074 0.153 0.15 0.304 0.221 0.458 0.051 0.109 0.113 0.217 0.114 0.34 0.001 0.093 0.044 0.156 0.090 0.198zM23.655 14.908c-0.049 0.144-0.014 0.263 0.073 0.371 0.045 0.056 0.084 0.114 0.040 0.183-0.048 0.074-0.032 0.15-0.031 0.229 0.003 0.159 0.034 0.319 0.009 0.478-0.046 0.29-0.058 0.581-0.019 0.871 0.022 0.159-0.070 0.276-0.111 0.412-0.009 0.030-0.042 0.059-0.082 0.044-0.034-0.013-0.052-0.046-0.055-0.080-0.003-0.025 0.008-0.051 0.011-0.077 0.019-0.177 0.080-0.352 0.038-0.533-0.006-0.026 0.011-0.071-0.032-0.074-0.041-0.003-0.069 0.029-0.081 0.068-0.031 0.1-0.076 0.194-0.084 0.303-0.012 0.157-0.021 0.32-0.067 0.468-0.11 0.352-0.134 0.726-0.296 1.065-0.095 0.199-0.155 0.414-0.246 0.616-0.141 0.312-0.36 0.582-0.502 0.896-0.042 0.094-0.107 0.19-0.187 0.251-0.153 0.118-0.267 0.267-0.368 0.424-0.106 0.165-0.24 0.299-0.383 0.426-0.244 0.217-0.497 0.425-0.735 0.649-0.155 0.146-0.321 0.283-0.509 0.369-0.153 0.070-0.29 0.152-0.417 0.259-0.008 0.007-0.018 0.013-0.028 0.018l-0.001 0c-0.154 0.064-0.287 0.164-0.452 0.211-0.146 0.041-0.271 0.148-0.422 0.187-0.221 0.058-0.424 0.182-0.658 0.193-0.076 0.004-0.148 0.019-0.221 0.040-0.224 0.065-0.452 0.113-0.685 0.127-0.074 0.004-0.146-0.018-0.22 0.019-0.112 0.056-0.233 0.076-0.358 0.071-0.037-0.002-0.078-0.004-0.103 0.033-0.006 0.008-0.009 0.018-0.009 0.029 0 0.013 0.005 0.025 0.014 0.034l-0-0c0.018 0.019 0.044 0.031 0.072 0.031 0.016 0 0.031-0.004 0.044-0.010l-0.001 0c0.114-0.056 0.229-0.023 0.344-0.015 0.030 0.002 0.058 0.006 0.089 0 0.205-0.040 0.393-0.132 0.614-0.14 0.231-0.008 0.459-0.104 0.688-0.164 0.048-0.013 0.098-0.045 0.126 0.017 0.025 0.056-0.026 0.086-0.066 0.1-0.215 0.075-0.427 0.172-0.662 0.165-0.123-0.003-0.209 0.054-0.289 0.14 0.208-0.086 0.439-0.025 0.647-0.118 0.119-0.053 0.248-0.1 0.376-0.114 0.118-0.013 0.215-0.065 0.318-0.107 0.052-0.021 0.076-0.059 0.047-0.117-0.040-0.079-0.008-0.126 0.068-0.159 0.216-0.095 0.443-0.169 0.641-0.303 0.148-0.1 0.332-0.137 0.464-0.27 0.048-0.048 0.122-0.074 0.188-0.101 0.051-0.021 0.102-0.020 0.14 0.035 0.072 0.105 0.143 0.111 0.229 0.014 0.111-0.125 0.244-0.223 0.379-0.319 0.219-0.155 0.41-0.34 0.605-0.523 0.068-0.064 0.103-0.159 0.177-0.207 0.084-0.054 0.161-0.11 0.223-0.187 0.155-0.189 0.303-0.384 0.464-0.567 0.184-0.209 0.29-0.465 0.434-0.699 0.020-0.032 0.051-0.085 0.012-0.113-0.045-0.033-0.067 0.030-0.096 0.054-0.027 0.022-0.054 0.047-0.090 0.024s-0.045-0.061-0.034-0.1c0.008-0.026 0.021-0.049 0.038-0.068l-0 0c0.077-0.081 0.116-0.183 0.167-0.279 0.057-0.107 0.069-0.23 0.132-0.331 0.070-0.113 0.122-0.234 0.158-0.359 0.073-0.256 0.179-0.503 0.219-0.769 0.008-0.054 0.041-0.094 0.101-0.082 0.055 0.010 0.063 0.061 0.065 0.106 0.001 0.029-0.003 0.062-0.015 0.088-0.062 0.134-0.069 0.285-0.128 0.42-0.012 0.028-0.021 0.061 0.015 0.079 0.033 0.015 0.061-0.003 0.076-0.031 0.016-0.029 0.027-0.062 0.036-0.094 0.034-0.127 0.039-0.262 0.106-0.379 0.033-0.057 0.040-0.117 0.047-0.182 0.017-0.156 0.040-0.314 0.079-0.466 0.041-0.161 0.097-0.309 0.108-0.485 0.013-0.225-0.049-0.461 0.047-0.682 0.010-0.024 0.002-0.062-0.010-0.087-0.040-0.081-0.049-0.167-0.048-0.253 0.002-0.107-0.031-0.214-0.021-0.316 0.022-0.235 0.036-0.46-0.148-0.655zM16.647 23.71c-0.099-0.062-0.181-0.059-0.261-0.038-0.056 0.015-0.104 0.003-0.153-0.017-0.078-0.032-0.104-0.067-0.013-0.116 0.034-0.018 0.051-0.046 0.041-0.084s-0.044-0.038-0.074-0.039c-0.109-0.003-0.217-0.016-0.327-0.001-0.283 0.041-0.565-0.006-0.837-0.066-0.184-0.041-0.366-0.057-0.55-0.075-0.072-0.008-0.138-0.025-0.2-0.050l0.005 0.002c-0.082-0.031-0.155-0.12-0.25-0.083-0.124 0.048-0.229 0.013-0.336-0.039-0.126-0.061-0.252-0.123-0.388-0.153-0.195-0.044-0.364-0.137-0.54-0.225-0.108-0.054-0.19-0.148-0.308-0.179-0.159-0.042-0.302-0.112-0.427-0.219-0.095-0.081-0.2-0.147-0.306-0.213-0.192-0.118-0.364-0.265-0.542-0.402-0.224-0.173-0.412-0.385-0.582-0.61-0.055-0.072-0.161-0.094-0.18-0.193-0.009-0.054-0.040-0.099-0.083-0.128l-0.001-0c-0.133-0.091-0.21-0.228-0.275-0.366-0.102-0.217-0.265-0.389-0.394-0.586-0.079-0.121-0.084-0.252-0.126-0.377-0.002-0.006-0.003-0.012-0.003-0.019 0-0.025 0.015-0.047 0.037-0.057l0-0c0.034-0.015 0.059 0.007 0.079 0.029 0.063 0.069 0.131 0.136 0.159 0.23 0.062 0.209 0.188 0.387 0.311 0.56 0.207 0.29 0.405 0.588 0.661 0.84 0.155 0.153 0.292 0.327 0.458 0.467 0.223 0.188 0.457 0.366 0.709 0.516 0.114 0.068 0.219 0.141 0.32 0.227 0.097 0.082 0.204 0.165 0.322 0.205 0.441 0.154 0.845 0.398 1.294 0.528 0.078 0.023 0.147 0.085 0.234 0.065 0.017-0.004 0.037-0.007 0.058-0.007 0.039 0 0.076 0.009 0.108 0.025l-0.001-0.001c0.088 0.040 0.182 0.048 0.277 0.037 0.108-0.013 0.209 0.015 0.31 0.047 0.039 0.013 0.079 0.028 0.119 0.034 0.257 0.036 0.518 0.013 0.776 0.050 0.171 0.025 0.346 0.002 0.518 0.001 0.182-0.001 0.374 0.015 0.55-0.034 0.185-0.051 0.364-0.091 0.553-0.052 0.106 0.021 0.172-0.069 0.265-0.080 0.257-0.033 0.496-0.132 0.732-0.227 0.282-0.113 0.569-0.209 0.853-0.317 0.206-0.078 0.405-0.183 0.566-0.324 0.261-0.23 0.573-0.384 0.833-0.617 0.212-0.19 0.423-0.381 0.62-0.585 0.177-0.183 0.322-0.396 0.503-0.577 0.045-0.045 0.106-0.074 0.135-0.135 0.185-0.396 0.457-0.743 0.644-1.138 0.050-0.105 0.061-0.227 0.139-0.319 0.062-0.073 0.089-0.159 0.122-0.248 0.162-0.427 0.243-0.872 0.333-1.316 0.023-0.114 0.008-0.233 0.044-0.346 0.049-0.153 0.049-0.312 0.041-0.471-0.004-0.071-0.014-0.147 0.003-0.214 0.066-0.255-0.002-0.504-0.032-0.751-0.037-0.301-0.065-0.603-0.101-0.905-0.006-0.052-0.006-0.119 0.054-0.135 0.067-0.018 0.090 0.052 0.101 0.099 0.041 0.167 0.053 0.34 0.075 0.51 0.024 0.188 0.059 0.375 0.067 0.566 0.010 0.224 0.068 0.446-0.011 0.669-0.025 0.069-0.016 0.142 0.014 0.21 0.019 0.045 0.063 0.076 0.114 0.076 0.005 0 0.010-0 0.015-0.001l-0.001 0c0.053-0.005 0.048-0.061 0.054-0.1 0.007-0.045 0.008-0.090 0.013-0.135 0.017-0.169-0.056-0.334-0.024-0.504 0.016-0.082 0.011-0.166-0.005-0.247-0.018-0.082-0.028-0.176-0.028-0.273 0-0.034 0.001-0.069 0.004-0.102l-0 0.005c0.002-0.016 0.002-0.034 0.002-0.053 0-0.084-0.018-0.165-0.050-0.237l0.001 0.004c-0.048-0.112-0.057-0.234-0.043-0.355 0.005-0.038 0.023-0.076 0.069-0.078 0.050-0.002 0.059 0.038 0.063 0.077 0.004 0.038 0.006 0.075 0.013 0.112 0.007 0.043 0 0.111 0.051 0.11 0.042-0.001 0.069-0.065 0.080-0.112 0.007-0.027-0.001-0.060-0.006-0.089-0.014-0.078-0.034-0.154-0.033-0.234 0.001-0.071-0.058-0.12-0.081-0.183-0.004-0.010-0.025-0.020-0.037-0.019-0.024 0.002-0.023 0.024-0.023 0.043-0 0.030 0.004 0.062-0.005 0.089-0.013 0.037-0.025 0.084-0.077 0.086-0.047 0.001-0.077-0.030-0.094-0.070-0.022-0.052-0.047-0.104-0.057-0.159-0.049-0.259-0.112-0.513-0.229-0.751-0.020-0.040-0.030-0.085-0.040-0.129-0.040-0.176-0.122-0.337-0.186-0.504-0.048-0.125-0.084-0.257-0.158-0.373-0.029-0.046-0.036-0.118 0.039-0.14 0.066-0.020 0.091 0.032 0.108 0.087 0.010 0.032 0.027 0.062 0.044 0.091 0.009 0.016 0.025 0.032 0.046 0.021s0.018-0.037 0.008-0.050c-0.076-0.1-0.099-0.227-0.171-0.329-0.155-0.221-0.285-0.458-0.452-0.672-0.145-0.186-0.26-0.393-0.434-0.558-0.054-0.051-0.116-0.124-0.009-0.196 0.040-0.027 0.031-0.064 0-0.097-0.253-0.268-0.467-0.58-0.832-0.719-0.047-0.018-0.078-0.056-0.115-0.088-0.13-0.112-0.228-0.264-0.397-0.328-0.068-0.026-0.12-0.073-0.179-0.113-0.123-0.085-0.241-0.179-0.369-0.253-0.118-0.069-0.24-0.139-0.373-0.182-0.079-0.025-0.144-0.080-0.205-0.138-0.052-0.050-0.070-0.101-0.001-0.15 0.071-0.050 0.046-0.090-0.017-0.112-0.080-0.028-0.148-0.075-0.221-0.114-0.287-0.153-0.622-0.175-0.907-0.336-0.115-0.065-0.267-0.045-0.378-0.105-0.272-0.149-0.573-0.127-0.859-0.158-0.429-0.048-0.864-0.010-1.296 0.005-0.171 0.006-0.345 0.051-0.516-0.001-0.101-0.030-0.196-0.008-0.285 0.032-0.057 0.026-0.116 0.050-0.173 0.042-0.212-0.030-0.399 0.070-0.594 0.113-0.317 0.069-0.618 0.207-0.943 0.243-0.151 0.017-0.25 0.13-0.387 0.175-0.196 0.065-0.404 0.125-0.57 0.241-0.261 0.181-0.55 0.312-0.804 0.503-0.276 0.208-0.59 0.364-0.834 0.619-0.177 0.184-0.367 0.356-0.557 0.528-0.163 0.147-0.282 0.332-0.443 0.482-0.082 0.076-0.187 0.126-0.247 0.229-0.151 0.259-0.268 0.447-0.389 0.631l0.035-0.057c-0.096 0.148-0.152 0.324-0.296 0.436-0.085 0.066-0.119 0.152-0.139 0.249-0.014 0.067-0.044 0.129-0.060 0.194-0.041 0.168-0.16 0.299-0.215 0.457-0.124 0.359-0.253 0.715-0.363 1.080-0.082 0.275-0.105 0.558-0.172 0.834-0.017 0.064-0.026 0.137-0.026 0.212 0 0.032 0.002 0.064 0.005 0.095l-0-0.004c0.003 0.024 0.006 0.046 0.032 0.052 0.028 0.006 0.041-0.015 0.048-0.037 0.026-0.079 0.057-0.159 0.040-0.243-0.022-0.103-0.001-0.2 0.010-0.302 0.017-0.155 0.082-0.295 0.112-0.443 0.055-0.271 0.208-0.514 0.225-0.795 0.001-0.022 0.032-0.040 0.044-0.063 0.088-0.16 0.247-0.289 0.271-0.473 0.027-0.207 0.132-0.363 0.244-0.523 0.056-0.080 0.113-0.159 0.172-0.237 0.018-0.023 0.045-0.045 0.078-0.026 0.009 0.005 0.018 0.031 0.013 0.038-0.059 0.077-0.049 0.18-0.101 0.261-0.112 0.17-0.205 0.367-0.267 0.576l-0.004 0.016c-0.034 0.118-0.090 0.223-0.158 0.322-0.028 0.040-0.061 0.078-0.074 0.126-0.099 0.35-0.287 0.666-0.352 1.033-0.053 0.297-0.085 0.595-0.123 0.892-0.019 0.148-0.009 0.3 0.001 0.45 0.009 0.138-0.018 0.283 0.054 0.42 0.074-0.136 0.077-0.28 0.065-0.414-0.023-0.241 0.047-0.466 0.081-0.698 0.017-0.114 0.086-0.209 0.093-0.324 0.026-0.415 0.182-0.796 0.318-1.181 0.021-0.060 0.055-0.115 0.132-0.089s0.056 0.086 0.039 0.142c-0.102 0.347-0.243 0.68-0.334 1.030-0.024 0.092-0.052 0.181-0.034 0.277 0.007 0.038 0.004 0.075-0.008 0.112-0.078 0.223-0.095 0.457-0.101 0.688-0.011 0.396-0.018 0.791 0.032 1.19 0.036 0.289 0.098 0.574 0.129 0.865 0.030 0.29 0.139 0.572 0.234 0.852 0.052 0.154 0.14 0.293 0.178 0.449 0.034 0.141 0.126 0.237 0.202 0.346 0.011 0.015 0.029 0.028 0.048 0.020 0.024-0.011 0.010-0.030 0.008-0.048-0.018-0.226-0.145-0.417-0.224-0.619-0.11-0.281-0.179-0.57-0.253-0.859-0.024-0.092-0.041-0.184-0.112-0.254-0.032-0.032-0.051-0.066-0.017-0.109 0.058-0.074 0.044-0.154 0.022-0.237-0.035-0.127-0.089-0.249-0.094-0.383-0.010-0.259 0.004-0.517 0.017-0.776 0.002-0.045 0.008-0.090-0.006-0.134-0.029-0.088-0.010-0.171 0.031-0.251 0.018-0.034 0.031-0.077 0.076-0.072 0.055 0.006 0.056 0.057 0.056 0.097-0.001 0.141-0.022 0.281-0.006 0.425 0.013 0.117 0.025 0.237 0.017 0.359-0.011 0.168 0.011 0.338-0.003 0.507-0.007 0.084 0.064 0.144 0.068 0.225 0.013 0.306 0.101 0.599 0.166 0.896 0.009 0.043 0.030 0.085 0.051 0.125 0.046 0.087 0.077 0.179 0.102 0.274 0.036 0.138 0.084 0.274 0.156 0.398 0.080 0.137 0.158 0.273 0.201 0.428 0.037 0.13 0.116 0.247 0.122 0.388 0.001 0.022 0.037 0.047 0.004 0.066-0.032 0.018-0.047-0.013-0.056-0.038-0.037-0.102-0.111-0.179-0.173-0.263-0.021-0.029-0.038-0.088-0.092-0.043-0.039 0.033-0.085 0.066-0.048 0.132 0.052 0.091 0.093 0.187 0.148 0.275 0.125 0.201 0.251 0.403 0.386 0.597 0.152 0.219 0.307 0.436 0.477 0.642 0.243 0.294 0.539 0.536 0.816 0.795 0.14 0.132 0.266 0.283 0.455 0.363 0.107 0.045 0.197 0.135 0.29 0.21 0.171 0.138 0.339 0.279 0.583 0.176 0.018-0.008 0.045-0.003 0.066 0.002 0.135 0.036 0.264 0.087 0.384 0.161 0.029 0.018 0.047 0.042 0.033 0.075-0.018 0.042-0.053 0.036-0.086 0.020-0.053-0.027-0.106-0.052-0.186-0.037 0.074 0.12 0.185 0.172 0.294 0.211 0.299 0.106 0.602 0.2 0.904 0.299 0.021 0.007 0.048 0.024 0.060-0.001 0.017-0.035-0.020-0.042-0.042-0.053-0.023-0.012-0.050-0.018-0.073-0.030-0.186-0.087-0.403-0.088-0.575-0.212-0.046-0.033-0.148-0.041-0.125-0.103 0.026-0.074 0.118-0.028 0.17-0.008 0.214 0.084 0.437 0.138 0.656 0.206 0.345 0.107 0.698 0.184 1.051 0.256 0.108 0.022 0.224 0.018 0.336 0.030 0.191 0.020 0.378 0.088 0.577 0.030 0.082-0.024 0.143 0.056 0.115 0.14-0.022 0.066 0.007 0.070 0.056 0.073 0.251 0.013 0.501-0.016 0.778-0.029zM23.156 20.617c-0.188 0.254-0.369 0.513-0.579 0.75-0.254 0.287-0.502 0.581-0.814 0.811-0.095 0.070-0.148 0.178-0.247 0.247-0.307 0.211-0.543 0.381-0.774 0.557l0.052-0.038c-0.238 0.18-0.503 0.311-0.764 0.453-0.156 0.086-0.278 0.161-0.398 0.24l0.022-0.014c-0.162 0.104-0.348 0.137-0.521 0.206-0.21 0.083-0.419 0.177-0.638 0.225-0.168 0.037-0.335 0.080-0.505 0.112-0.196 0.038-0.38 0.117-0.581 0.139-0.391 0.041-0.78 0.118-1.174 0.117-0.153-0.001-0.307 0.038-0.46-0.008-0.042-0.013-0.089-0.003-0.134 0.006-0.111 0.022-0.224 0.039-0.333-0.009-0.090-0.040-0.18 0.018-0.268-0-0.171-0.035-0.346-0.059-0.516-0.088-0.256-0.043-0.496-0.155-0.758-0.167-0.106-0.005-0.185-0.080-0.275-0.126-0.066-0.035-0.131-0.057-0.205-0.042-0.050 0.010-0.098-0.002-0.144-0.018-0.267-0.091-0.535-0.18-0.779-0.326-0.14-0.083-0.304-0.116-0.437-0.207-0.245-0.167-0.513-0.299-0.745-0.486-0.014-0.012-0.028-0.029-0.045-0.034-0.194-0.052-0.324-0.194-0.47-0.318-0.241-0.205-0.483-0.406-0.701-0.637-0.141-0.15-0.268-0.312-0.417-0.457-0.115-0.112-0.23-0.237-0.302-0.39-0.052-0.109-0.138-0.197-0.219-0.287-0.115-0.127-0.197-0.272-0.273-0.426-0.148-0.3-0.319-0.589-0.464-0.89s-0.293-0.601-0.364-0.932c-0.037-0.172-0.097-0.34-0.15-0.509-0.097-0.31-0.151-0.629-0.19-0.949-0.014-0.117-0.063-0.223-0.075-0.34-0.022-0.226 0.029-0.457-0.023-0.676-0.057-0.241 0.043-0.469 0.015-0.703-0.033-0.276 0.013-0.552 0.059-0.818 0.038-0.222 0.063-0.452 0.149-0.669 0.057-0.145 0.108-0.299 0.135-0.453 0.040-0.228 0.138-0.429 0.239-0.63 0.056-0.111 0.111-0.22 0.137-0.344 0.043-0.211 0.144-0.403 0.235-0.595 0.075-0.159 0.193-0.294 0.279-0.45 0.096-0.172 0.218-0.332 0.339-0.488 0.124-0.16 0.277-0.299 0.387-0.467 0.231-0.353 0.576-0.592 0.86-0.891 0.036-0.038 0.085-0.062 0.126-0.094 0.326-0.254 0.655-0.506 1.004-0.727 0.178-0.113 0.371-0.2 0.554-0.305s0.369-0.204 0.569-0.27c0.125-0.041 0.233-0.117 0.351-0.17 0.191-0.086 0.392-0.143 0.588-0.191 0.31-0.076 0.604-0.204 0.924-0.255 0.2-0.032 0.408-0.034 0.604-0.108 0.106-0.040 0.224-0.031 0.337-0.024 0.301 0.020 0.601-0.020 0.901-0.014 0.24 0.005 0.481 0.027 0.721 0.042 0.131 0.008 0.263 0.027 0.393 0.024 0.239-0.005 0.467 0.073 0.678 0.147 0.275 0.096 0.558 0.175 0.83 0.287 0.187 0.077 0.369 0.167 0.564 0.227 0.113 0.035 0.221 0.097 0.321 0.163 0.192 0.127 0.401 0.223 0.587 0.359 0.057 0.042 0.125 0.071 0.191 0.097 0.154 0.060 0.283 0.15 0.388 0.279 0.047 0.058 0.13 0.057 0.189 0.099 0.206 0.145 0.39 0.317 0.581 0.481 0.026 0.022 0.044 0.053 0.071 0.073 0.356 0.25 0.61 0.598 0.885 0.926 0.13 0.155 0.22 0.329 0.321 0.501 0.080 0.136 0.205 0.245 0.297 0.375 0.088 0.125 0.169 0.257 0.21 0.407 0.022 0.079 0.073 0.141 0.12 0.203 0.103 0.135 0.155 0.293 0.208 0.448 0.063 0.185 0.183 0.348 0.201 0.55 0.003 0.031 0.027 0.062 0.047 0.088 0.047 0.062 0.079 0.129 0.079 0.208 0.001 0.178 0.105 0.328 0.135 0.499 0.047 0.269 0.14 0.529 0.151 0.807 0.005 0.134 0.049 0.265 0.064 0.4 0.012 0.105 0.026 0.208 0.019 0.314-0.010 0.164 0.031 0.326 0.026 0.493-0.014 0.419-0.008 0.84-0.084 1.254-0.040 0.218-0.103 0.432-0.167 0.645-0.035 0.115-0.049 0.235-0.082 0.351-0.043 0.153-0.084 0.303-0.179 0.433-0.013 0.017-0.025 0.045-0.019 0.063 0.058 0.188-0.072 0.323-0.133 0.476-0.045 0.112-0.097 0.219-0.12 0.339-0.023 0.118-0.065 0.23-0.14 0.329-0.146 0.193-0.239 0.417-0.361 0.624-0.034 0.058-0.077 0.111-0.116 0.167z"></path>
<path d="M10.392 24.842c-0.099-0.105-0.213-0.174-0.35-0.204-0.028-0.006-0.062-0.018-0.080-0.039-0.124-0.14-0.296-0.218-0.433-0.342-0.129-0.117-0.275-0.21-0.423-0.3-0.026-0.016-0.056-0.030-0.072-0.054-0.127-0.189-0.329-0.306-0.466-0.487-0.081-0.107-0.181-0.201-0.282-0.291-0.177-0.158-0.273-0.375-0.416-0.557-0.109-0.139-0.242-0.254-0.352-0.392-0.067-0.084-0.111-0.169-0.122-0.272-0.005-0.051-0.023-0.082-0.075-0.097-0.083-0.025-0.131-0.081-0.171-0.162-0.071-0.144-0.163-0.279-0.25-0.416-0.171-0.268-0.294-0.561-0.425-0.848-0.105-0.229-0.188-0.468-0.284-0.701-0.079-0.192-0.093-0.402-0.177-0.592-0.097-0.218-0.131-0.455-0.179-0.684-0.065-0.317-0.149-0.632-0.18-0.958-0.018-0.193-0.037-0.385-0.049-0.578-0.037-0.602-0.046-1.205 0.025-1.806 0.045-0.384 0.111-0.763 0.234-1.13 0.008-0.024 0.019-0.049 0.035-0.069 0.021-0.027 0.048-0.053 0.087-0.032 0.031 0.017 0.038 0.052 0.027 0.079-0.117 0.297-0.064 0.627-0.186 0.922-0.011 0.027-0.023 0.061-0.017 0.087 0.065 0.298 0.005 0.597-0.031 0.886-0.041 0.328 0.046 0.649-0.013 0.975-0.037 0.204 0.036 0.418 0.074 0.625 0.020 0.111 0.012 0.217 0.004 0.324-0.009 0.113 0.030 0.214 0.067 0.316 0.055 0.15 0.059 0.31 0.087 0.465 0.048 0.275 0.176 0.529 0.222 0.803 0.045 0.267 0.208 0.479 0.301 0.721 0.157 0.406 0.377 0.779 0.566 1.167 0.097 0.198 0.237 0.375 0.319 0.583 0.015 0.039 0.058 0.069 0.092 0.097 0.162 0.137 0.238 0.333 0.353 0.502 0.012 0.018 0.025 0.040 0.043 0.050 0.135 0.081 0.2 0.221 0.291 0.339 0.138 0.178 0.287 0.346 0.442 0.51 0.162 0.173 0.342 0.326 0.512 0.49 0.065 0.063 0.122 0.134 0.205 0.173 0.204 0.096 0.344 0.276 0.529 0.397 0.203 0.132 0.4 0.276 0.624 0.371 0.069 0.029 0.115 0.083 0.177 0.117 0.277 0.151 0.544 0.32 0.826 0.462 0.088 0.044 0.173 0.086 0.276 0.084 0.063-0.001 0.139 0.008 0.181 0.053 0.148 0.158 0.345 0.189 0.54 0.228 0.179 0.036 0.325 0.157 0.506 0.19 0.174 0.031 0.341 0.091 0.52 0.101 0.047 0.003 0.114 0.007 0.114 0.067-0 0.076-0.075 0.062-0.123 0.062-0.082 0.001-0.164-0.004-0.245-0.031-0.171-0.058-0.355-0.059-0.526-0.122-0.060-0.022-0.121-0.036-0.172-0.078-0.026-0.021-0.055-0.048-0.086-0.052-0.247-0.036-0.456-0.165-0.681-0.256-0.243-0.098-0.484-0.204-0.725-0.307-0.244-0.105-0.482-0.227-0.69-0.389zM23.633 22.597c-0.16 0.169-0.313 0.309-0.439 0.471-0.101 0.13-0.235 0.226-0.335 0.36-0.084 0.113-0.222 0.189-0.343 0.271-0.107 0.073-0.198 0.164-0.289 0.252-0.117 0.112-0.248 0.197-0.39 0.265-0.057 0.027-0.095 0.072-0.142 0.11-0.1 0.081-0.22 0.129-0.33 0.195-0.059 0.036-0.112 0.073-0.157 0.126-0.029 0.034-0.065 0.061-0.106 0.079l-0.002 0.001c-0.351 0.139-0.668 0.345-1.004 0.513-0.144 0.072-0.3 0.119-0.45 0.177-0.024 0.009-0.055 0.008-0.075 0.023-0.152 0.111-0.343 0.099-0.51 0.164-0.060 0.023-0.118 0.049-0.177 0.074-0.182 0.078-0.374 0.115-0.567 0.15-0.026 0.005-0.067 0.005-0.074 0.019-0.053 0.114-0.144 0.064-0.226 0.060-0.18-0.008-0.35 0.051-0.52 0.098-0.071 0.020-0.14 0.031-0.211 0.019-0.148-0.026-0.294-0.002-0.437 0.029-0.043 0.010-0.092 0.015-0.142 0.015-0.029 0-0.058-0.002-0.086-0.005l0.003 0c-0.051-0.006-0.118 0.002-0.121-0.072-0.002-0.069 0.050-0.118 0.113-0.121 0.135-0.007 0.269-0.040 0.406-0.024 0.034 0.004 0.070 0.013 0.101 0.004 0.156-0.044 0.319-0.049 0.474-0.080 0.22-0.043 0.449-0.054 0.661-0.14 0.096-0.039 0.199-0.069 0.309-0.057 0.036 0.004 0.079-0.004 0.109-0.022 0.194-0.119 0.421-0.137 0.631-0.208 0.178-0.061 0.337-0.171 0.525-0.205 0.164-0.030 0.285-0.155 0.437-0.2 0.165-0.049 0.296-0.15 0.445-0.217 0.194-0.088 0.378-0.179 0.535-0.323 0.033-0.030 0.074-0.055 0.115-0.071 0.168-0.065 0.29-0.187 0.425-0.301s0.283-0.235 0.461-0.297c0.111-0.039 0.169-0.147 0.246-0.223 0.189-0.186 0.408-0.336 0.58-0.542 0.129-0.154 0.286-0.288 0.414-0.446 0.002-0.003 0.005-0.006 0.008-0.008l0-0c0.046-0.032 0.097-0.082 0.149-0.031 0.049 0.048-0 0.097-0.014 0.118zM25.872 19.774c-0.152 0.084-0.13 0.248-0.192 0.369-0.040 0.058-0.177 0.328-0.31 0.599l-0.099 0.223c-0.117 0.244-0.269 0.465-0.43 0.68-0.072 0.093-0.144 0.2-0.211 0.31l-0.009 0.016c-0.033 0.053-0.069 0.1-0.11 0.142l0-0c-0.030 0.031-0.070 0.026-0.103-0.001s-0.023-0.060-0.002-0.091c0.14-0.212 0.267-0.432 0.426-0.631 0.136-0.17 0.242-0.364 0.342-0.554 0.128-0.243 0.255-0.489 0.372-0.739 0.043-0.091 0.058-0.194 0.101-0.285 0.095-0.202 0.197-0.401 0.301-0.599 0.054-0.103 0.042-0.219 0.070-0.327 0.055-0.188 0.125-0.475 0.185-0.766l0.015-0.088c0.039-0.198 0.045-0.403 0.104-0.598 0.017-0.056 0.006-0.152 0.093-0.142 0.102 0.012 0.097 0.113 0.082 0.183-0.048 0.223-0.059 0.455-0.161 0.664-0.009 0.016-0.014 0.034-0.014 0.054v0c0.009 0.253-0.114 0.472-0.174 0.707-0.062 0.244-0.162 0.474-0.263 0.703-0.026 0.058 0.008 0.12-0.013 0.169zM26.407 13.993c0.026 0.020 0.061 0.032 0.047 0.071-0.050 0.133 0.016 0.261 0.009 0.392-0.001 0.015-0.004 0.036 0.004 0.044 0.124 0.143 0.064 0.323 0.078 0.482 0.032 0.37 0.131 0.735 0.098 1.11-0.021 0.237-0.006 0.476-0.063 0.71-0.014 0.058 0.017 0.111 0.014 0.169-0.003 0.055-0.018 0.101-0.079 0.107-0.064 0.007-0.067-0.045-0.074-0.091-0.016-0.095 0.008-0.189 0.004-0.283-0.013-0.294 0.017-0.589 0.014-0.883-0.002-0.162 0.017-0.331-0.024-0.483-0.093-0.351-0.045-0.723-0.16-1.070-0.021-0.062-0.011-0.135-0.013-0.203-0.001-0.041-0.003-0.088 0.040-0.111 0.048-0.025 0.074 0.022 0.106 0.039zM24.25 22.429c-0.146 0.205-0.332 0.376-0.468 0.589-0.037 0.057-0.108 0.092-0.162 0.138-0.186 0.158-0.327 0.36-0.522 0.512-0.345 0.267-0.67 0.559-1.017 0.824-0.087 0.066-0.202 0.111-0.303 0.167-0.028 0.015-0.072 0.025-0.096-0.009-0.029-0.042 0.017-0.057 0.040-0.079 0.206-0.194 0.458-0.328 0.677-0.506 0.088-0.071 0.122-0.188 0.235-0.236 0.263-0.112 0.411-0.357 0.618-0.534 0.338-0.291 0.6-0.652 0.893-0.984 0.032-0.036 0.069-0.070 0.107-0.1 0.021-0.016 0.050-0.022 0.075 0s0.024 0.050 0.011 0.074c-0.027 0.049-0.058 0.097-0.087 0.145z"></path>
<path d="M11.606 24.944c0.038 0.043 0.065 0.063 0.1 0.070 0.306 0.061 0.565 0.242 0.847 0.364 0.042 0.018 0.091 0.045 0.067 0.098-0.025 0.055-0.079 0.058-0.133 0.029-0.199-0.107-0.43-0.124-0.625-0.242-0.053-0.032-0.070 0.075-0.123 0.030-0.037-0.031-0.010-0.090-0.059-0.126-0.093-0.070-0.203-0.099-0.305-0.144-0.076-0.034-0.147-0.077-0.222-0.109-0.152-0.066-0.259-0.194-0.4-0.273-0.049-0.027-0.077-0.069-0.053-0.12s0.077-0.032 0.119-0.021c0.137 0.039 0.239 0.142 0.362 0.207 0.15 0.078 0.297 0.164 0.426 0.237zM17.939 26.206c-0.055-0.040-0.043-0.093 0.031-0.127 0.118-0.054 0.245-0.075 0.369-0.105 0.347-0.084 0.692-0.171 1.030-0.292 0.21-0.075 0.413-0.164 0.615-0.257 0.049-0.023 0.11-0.040 0.138 0.024 0.031 0.071-0.026 0.098-0.081 0.123-0.199 0.092-0.39 0.211-0.598 0.27-0.196 0.056-0.372 0.184-0.589 0.174-0.116-0.005-0.218 0.074-0.336 0.092-0.148 0.022-0.293 0.070-0.438 0.109-0.050 0.013-0.096 0.018-0.141-0.011zM25.073 20.296c0.049-0.041 0.071-0.099 0.091-0.156 0.102-0.301 0.257-0.58 0.369-0.877 0.048-0.128 0.108-0.251 0.12-0.391 0.006-0.056 0.026-0.107 0.055-0.15l-0.001 0.001c0.024-0.036 0.057-0.067 0.105-0.051 0.049 0.016 0.058 0.062 0.050 0.105-0.014 0.081-0.031 0.152-0.054 0.221l0.003-0.011c-0.074 0.219-0.186 0.422-0.236 0.65-0.013 0.061-0.053 0.112-0.098 0.151-0.073 0.063-0.121 0.147-0.131 0.232-0.029 0.235-0.219 0.388-0.285 0.602-0.013 0.042-0.058 0.063-0.104 0.046-0.054-0.021-0.049-0.071-0.031-0.108 0.044-0.091 0.075-0.191 0.148-0.266zM23.933 22.051c0.319-0.317 0.496-0.698 0.753-1.019 0.034-0.043 0.039-0.105 0.088-0.14 0.034-0.024 0.071-0.054 0.111-0.029 0.045 0.029 0.024 0.077 0.005 0.11-0.080 0.138-0.158 0.279-0.25 0.409-0.193 0.273-0.395 0.54-0.595 0.808-0.019 0.026-0.049 0.045-0.077 0.062s-0.062 0.033-0.091 0.003c-0.024-0.025-0.016-0.056-0.004-0.083 0.023-0.051 0.050-0.099 0.061-0.12zM15.467 26.332c-0.027-0.020-0.046-0.035-0.041-0.061s0.027-0.034 0.049-0.041c0.033-0.010 0.070-0.016 0.109-0.016 0.013 0 0.026 0.001 0.039 0.002l-0.002-0c0.341 0.037 0.681-0.011 1.023 0.009 0.063 0.003 0.126-0.023 0.19-0.028 0.052-0.004 0.12-0.005 0.128 0.064 0.007 0.059-0.060 0.063-0.1 0.069-0.238 0.038-0.476 0.082-0.719 0.088-0.198 0.005-0.395 0.003-0.587-0.054-0.033-0.010-0.065-0.023-0.087-0.032zM26.099 16.317c0.024-0.029 0.051-0.048 0.087-0.040 0.044 0.010 0.058 0.046 0.057 0.085-0.005 0.235 0.014 0.472-0.043 0.703-0.013 0.052-0.033 0.107-0.097 0.1-0.070-0.008-0.062-0.068-0.062-0.122 0.002-0.194 0.058-0.385 0.019-0.582-0.010-0.049 0.012-0.102 0.038-0.145zM26.104 14.895c0.032-0.040 0.070-0.050 0.089-0.003 0.049 0.123 0.1 0.245 0.080 0.388-0.016 0.117-0.028 0.236-0.002 0.351 0.015 0.068-0.018 0.107-0.075 0.12-0.063 0.015-0.072-0.038-0.078-0.084-0.022-0.191-0.041-0.383-0.065-0.575-0.009-0.073 0.025-0.134 0.049-0.197zM26.058 17.379c0.041-0.040 0.071-0.025 0.090 0.016 0.029 0.064 0.026 0.133-0.002 0.195-0.076 0.17-0.072 0.358-0.128 0.533-0.016 0.049-0.022 0.101-0.037 0.15-0.009 0.029-0.033 0.052-0.066 0.051-0.041-0.002-0.056-0.035-0.061-0.069-0.013-0.081 0.011-0.157 0.049-0.224 0.034-0.061 0.047-0.122 0.052-0.19 0.010-0.145 0.098-0.274 0.090-0.423-0.001-0.013 0.010-0.027 0.014-0.038zM12.678 25.546c-0.013-0.014-0.067-0.035-0.040-0.085s0.082-0.028 0.114-0.010c0.186 0.102 0.397 0.123 0.595 0.184 0.053 0.016 0.133 0.044 0.125 0.098-0.009 0.060-0.091 0.030-0.14 0.034-0.125 0.011-0.242-0.014-0.348-0.086-0.088-0.060-0.211-0.041-0.306-0.135zM20.998 25.042c0.15-0.099 0.3-0.221 0.492-0.257 0.025-0.005 0.052-0.008 0.067 0.017 0.017 0.029 0.002 0.058-0.020 0.077-0.028 0.025-0.059 0.048-0.092 0.069l-0.003 0.002c-0.113 0.072-0.227 0.141-0.339 0.213-0.048 0.031-0.090 0.021-0.123-0.017-0.029-0.032-0.013-0.066 0.019-0.105zM20.149 25.459c-0.034-0.029-0.025-0.068 0.016-0.076 0.176-0.034 0.32-0.139 0.483-0.203 0.035-0.014 0.072-0.014 0.088 0.029 0.015 0.039-0.002 0.077-0.041 0.084-0.149 0.027-0.261 0.139-0.405 0.177-0.048 0.013-0.091 0.018-0.14-0.011zM19.697 19.611c0.117-0.112 0.268-0.19 0.359-0.332 0.016-0.024 0.056-0.057 0.005-0.082-0.088-0.044-0.171 0.003-0.178 0.104-0.006 0.080-0.028 0.145-0.099 0.19-0.041 0.026-0.069 0.068-0.086 0.121zM12.055 12.988c-0.209 0.196-0.344 0.439-0.448 0.701 0.11-0.115 0.143-0.282 0.272-0.384 0.102-0.080 0.131-0.204 0.176-0.318zM14.247 11.361c-0.168-0.050-0.703 0.222-0.737 0.365 0.237-0.137 0.471-0.262 0.737-0.365zM11.928 12.801c0.034-0.061 0.076-0.117 0.134-0.15 0.084-0.048 0.133-0.129 0.203-0.189 0.063-0.054 0.071-0.143 0.136-0.194 0.027-0.021 0.080-0.046 0.035-0.085-0.038-0.034-0.081-0.001-0.103 0.037-0.050 0.086-0.131 0.149-0.181 0.231-0.071 0.119-0.181 0.212-0.224 0.349zM17.009 20.813c-0.179-0.018-0.345 0.058-0.519 0.035-0.009-0.001-0.022 0.007-0.031 0.013-0.030 0.023-0.045 0.056-0.033 0.089s0.045 0.011 0.070 0.009c0.060-0.005 0.121-0.018 0.18-0.013 0.136 0.013 0.23-0.070 0.333-0.134zM11.582 17.747c0.021 0.015 0.040 0.043 0.069 0.028 0.036-0.018 0.019-0.053 0.015-0.081-0.004-0.025-0.011-0.046-0.019-0.067l0.001 0.002c-0.047-0.121-0.134-0.226-0.128-0.367 0.001-0.031-0.016-0.086-0.066-0.074-0.045 0.011-0.047 0.061-0.032 0.096 0.053 0.127 0.075 0.261 0.107 0.393 0.008 0.032 0.033 0.050 0.055 0.071zM20.741 13.966c0.024-0.030 0.018-0.064 0.005-0.088-0.102-0.174-0.147-0.38-0.3-0.524-0.045-0.043-0.083-0.094-0.079-0.157 0.004-0.071-0.040-0.11-0.076-0.157-0.016-0.021-0.035-0.046-0.065-0.032-0.035 0.016-0.016 0.046-0.007 0.069 0.058 0.152 0.162 0.277 0.255 0.406 0.086 0.118 0.151 0.241 0.189 0.38 0.013 0.047 0.036 0.079 0.077 0.102zM20.117 12.919c-0.014-0.132-0.55-0.734-0.669-0.745 0.236 0.23 0.39 0.534 0.669 0.745zM12.734 19.708c-0.005 0.048 0.027 0.072 0.051 0.099 0.164 0.184 0.383 0.298 0.569 0.455 0.028 0.024 0.067 0.058 0.098 0.020s-0.019-0.065-0.038-0.094c-0.010-0.015-0.028-0.025-0.043-0.035-0.21-0.147-0.42-0.294-0.636-0.445zM18.502 20.25c0.144 0.012 0.23-0.056 0.282-0.174 0.023-0.051 0.070-0.054 0.113-0.063 0.173-0.034 0.233-0.193 0.338-0.307-0.088 0.061-0.198 0.065-0.281 0.131-0.122 0.096-0.203 0.242-0.364 0.293-0.049 0.016-0.091 0.055-0.089 0.12zM18.388 20.327c-0.050-0.030-0.087-0.009-0.126 0.002-0.108 0.030-0.19 0.107-0.289 0.152-0.253 0.117-0.519 0.195-0.791 0.253-0.007 0.002-0.015 0.002-0.022 0.004-0.019 0.005-0.038 0.012-0.040 0.034-0.002 0.025 0.021 0.027 0.038 0.033 0.073 0.025 0.145 0.011 0.209-0.021 0.189-0.098 0.401-0.126 0.594-0.208 0.15-0.064 0.304-0.127 0.427-0.249zM12.64 12.039c0.051-0.009 0.087-0.017 0.124-0.023 0.038-0.006 0.086-0.050 0.111 0.001 0.019 0.040-0.041 0.042-0.065 0.062-0.022 0.019-0.040 0.041-0.025 0.068 0.020 0.033 0.047 0.012 0.067-0.004 0.123-0.101 0.257-0.183 0.406-0.241 0.033-0.013 0.064-0.037 0.062-0.087-0.087 0.010-0.155 0.053-0.228 0.081-0.047 0.018-0.092 0.008-0.119-0.037-0.020-0.033-0.033-0.073 0.007-0.102 0.051-0.038 0.101-0.080 0.159-0.104 0.134-0.056 0.253-0.14 0.364-0.226 0.164-0.127 0.342-0.201 0.54-0.239 0.064-0.012 0.103-0.049 0.12-0.113-0.077-0.027-0.125 0.012-0.176 0.044-0.054 0.035-0.114 0.058-0.165 0.005-0.065-0.068-0.124-0.052-0.191-0.008-0.063 0.041-0.129 0.077-0.195 0.114-0.057 0.032-0.12 0.057-0.076 0.145 0.011 0.023-0.009 0.051-0.035 0.064-0.059 0.029-0.097 0.083-0.146 0.124-0.088 0.072-0.196 0.11-0.295 0.164-0.024 0.013-0.055 0.010-0.069-0.019-0.016-0.033 0.012-0.046 0.035-0.059 0.036-0.021 0.070-0.042 0.072-0.101-0.157 0.005-0.2 0.162-0.316 0.212 0.152-0.001 0.152-0.001 0.036 0.277zM11.073 16.244c-0.052 0.123-0.092 0.246-0.029 0.376 0.019 0.039 0.036 0.080 0.025 0.12-0.050 0.191 0.051 0.359 0.079 0.538 0.022 0.139 0.102 0.264 0.136 0.403 0.021 0.084 0.018 0.173 0.068 0.25 0.077 0.12 0.126 0.253 0.185 0.382 0.067 0.147 0.133 0.304 0.253 0.41 0.139 0.122 0.225 0.272 0.313 0.426 0.036 0.063 0.082 0.118 0.154 0.144 0.021 0.008 0.047 0.017 0.063-0.003 0.017-0.023-0.006-0.044-0.019-0.059-0.052-0.060-0.115-0.112-0.16-0.176-0.244-0.342-0.522-0.665-0.619-1.091-0.006-0.025-0.024-0.047-0.038-0.069-0.083-0.136-0.165-0.27-0.158-0.44 0.002-0.048-0.014-0.097-0.029-0.144-0.054-0.168-0.13-0.327-0.151-0.51-0.010-0.089 0.018-0.178-0.012-0.261-0.035-0.096-0.062-0.191-0.061-0.295zM17.655 11.317c0.051 0.071 0.137 0.040 0.196 0.079 0.084 0.056 0.198 0.126 0.314 0.192l0.035 0.018c0.28 0.162 0.566 0.313 0.807 0.535 0.166 0.154 0.353 0.29 0.489 0.471 0.111 0.148 0.243 0.276 0.354 0.424 0.166 0.223 0.358 0.426 0.458 0.693 0.053 0.142 0.184 0.247 0.198 0.411 0.003 0.031 0.037 0.065 0.075 0.055 0.049-0.014 0.018-0.054 0.017-0.085-0.004-0.093-0.055-0.175-0.095-0.245-0.15-0.26-0.294-0.525-0.486-0.758-0.095-0.116-0.131-0.274-0.264-0.364-0.039-0.027-0.064-0.074-0.094-0.113-0.066-0.087-0.134-0.18-0.213-0.247-0.218-0.185-0.456-0.345-0.686-0.516-0.129-0.096-0.282-0.165-0.403-0.262-0.176-0.142-0.378-0.198-0.576-0.274-0.035-0.013-0.075-0.038-0.126-0.015zM14.088 20.297c0.002-0.017-0.017-0.038-0.046-0.052-0.158-0.079-0.308-0.172-0.46-0.26-0.323-0.19-0.599-0.417-0.835-0.68l-0.003-0.003c-0.085-0.096-0.2-0.165-0.264-0.278-0.084-0.148-0.196-0.276-0.292-0.415-0.033-0.048-0.083-0.076-0.132-0.106-0.028-0.017-0.059-0.018-0.085 0.002-0.035 0.026-0.010 0.055 0.002 0.080 0.027 0.059 0.059 0.116 0.112 0.155 0.158 0.116 0.25 0.291 0.378 0.435 0.061 0.069 0.107 0.161 0.008 0.248-0.025 0.021-0.034 0.056-0.009 0.081 0.056 0.056 0.107 0.123 0.2 0.152l-0.093-0.257c0.203 0.062 0.311 0.221 0.457 0.326 0.125 0.090 0.223 0.237 0.36 0.286 0.241 0.087 0.405 0.35 0.703 0.288zM11.355 13.21c0.029 0.021 0.042 0.012 0.055 0.005 0.034-0.019 0.070-0.042 0.104-0.010 0.037 0.034 0.023 0.077 0.006 0.117-0.019 0.045-0.037 0.082-0.058 0.118l0.003-0.005c-0.099 0.178-0.236 0.34-0.247 0.558-0.001 0.028-0.016 0.061-0.036 0.082-0.131 0.139-0.154 0.325-0.204 0.494-0.128 0.429-0.214 0.868-0.226 1.318-0.002 0.065-0.005 0.18 0.050 0.18 0.072-0 0.068-0.105 0.075-0.176 0.020-0.2 0.013-0.403 0.072-0.598 0.009-0.030 0.007-0.066 0.049-0.060 0.033 0.005 0.029 0.035 0.030 0.063 0.005 0.117 0.039 0.233 0.004 0.354 0.051-0.005 0.063-0.033 0.064-0.057 0.007-0.169 0.028-0.335 0.083-0.496 0.015-0.045 0.050-0.121-0.004-0.144-0.049-0.021-0.058 0.063-0.089 0.097-0.015 0.017-0.027 0.040-0.052 0.040-0.022 0-0.031-0.020-0.034-0.039-0.018-0.111-0.047-0.218 0.006-0.332 0.089-0.191 0.175-0.385 0.239-0.585 0.068-0.215 0.112-0.436 0.297-0.591 0.022-0.019 0.048-0.049 0.048-0.075 0.002-0.121 0.073-0.211 0.122-0.311 0.034-0.069 0.080-0.128 0.124-0.19 0.017-0.024 0.041-0.054 0.015-0.082-0.031-0.033-0.063-0.004-0.091 0.012-0.013 0.007-0.023 0.020-0.034 0.030-0.016 0.014-0.029 0.044-0.054 0.027-0.030-0.019-0.010-0.048-0.002-0.071 0.037-0.104 0.079-0.204 0.173-0.274 0.055-0.041 0.077-0.104 0.087-0.173-0.213 0.244-0.443 0.475-0.577 0.775zM16.362 11.031c-0.378-0.125-1.635 0.017-1.794 0.2 0.042 0.024 0.088 0.018 0.132 0.017 0.050-0.001 0.11-0.006 0.123 0.054 0.015 0.070-0.052 0.077-0.1 0.1-0.144 0.069-0.311 0.074-0.448 0.156-0.146 0.087-0.303 0.152-0.452 0.232-0.324 0.175-0.635 0.371-0.903 0.619-0.234 0.217-0.475 0.429-0.681 0.677-0.145 0.172-0.276 0.364-0.386 0.569l-0.009 0.018c-0.109 0.208-0.218 0.421-0.279 0.652-0.038 0.146-0.097 0.285-0.154 0.424-0.011 0.026-0.023 0.064 0.017 0.078 0.032 0.011 0.061-0.002 0.070-0.038 0.048-0.202 0.123-0.394 0.201-0.586 0.083-0.203 0.156-0.408 0.32-0.564 0.039-0.037 0.080-0.083 0.078-0.135-0.006-0.183 0.142-0.295 0.246-0.369 0.229-0.162 0.395-0.385 0.613-0.552 0.050-0.038 0.091-0.141 0.16-0.077 0.060 0.055-0.024 0.119-0.054 0.176-0.094 0.176-0.284 0.264-0.39 0.436-0.169 0.275-0.442 0.477-0.567 0.786-0.001 0.003-0.005 0.006-0.007 0.009-0.129 0.154-0.178 0.348-0.244 0.528-0.075 0.207-0.133 0.422-0.192 0.635-0.069 0.248-0.148 0.489-0.152 0.749-0.004 0.229-0.040 0.458 0.030 0.684 0.012 0.038 0.003 0.094 0.060 0.095 0.055 0.002 0.055-0.055 0.068-0.092 0.020-0.060 0.009-0.12-0.012-0.178-0.010-0.028-0.026-0.056-0.029-0.085-0.007-0.056 0.003-0.11 0.065-0.129s0.096 0.018 0.123 0.072c0.046 0.092 0.073 0.2 0.073 0.314 0 0.038-0.003 0.074-0.008 0.11l0.001-0.004c-0.018 0.115-0.002 0.215 0.026 0.321 0.044 0.164 0.091 0.326 0.148 0.486 0.017 0.048 0.021 0.102-0.031 0.132-0.041 0.024-0.077-0.011-0.095-0.040-0.079-0.131-0.187-0.25-0.171-0.421 0.007-0.076-0.006-0.151-0.030-0.224-0.014-0.044-0.028-0.096-0.088-0.082-0.061 0.014-0.071 0.071-0.054 0.119 0.092 0.263 0.122 0.546 0.264 0.794 0.039 0.067 0.090 0.124 0.115 0.205 0.047 0.149 0.111 0.293 0.211 0.421 0.078 0.101 0.176 0.192 0.238 0.298 0.149 0.253 0.393 0.426 0.545 0.673 0.013 0.021 0.038 0.037 0.059 0.052 0.168 0.122 0.341 0.237 0.503 0.366 0.089 0.071 0.195 0.116 0.28 0.189 0.183 0.158 0.41 0.23 0.634 0.28 0.107 0.024 0.208 0.047 0.3 0.1 0.071 0.041 0.147 0.057 0.223 0.079 0.191 0.054 0.393 0.002 0.584 0.060 0.060 0.018 0.129 0.034 0.19 0.024 0.278-0.048 0.563 0 0.841-0.077 0.158-0.044 0.337 0.011 0.497-0.068 0.033-0.016 0.072-0.023 0.109-0.031 0.029-0.006 0.052 0.008 0.066 0.034 0.014 0.027 0.008 0.054-0.014 0.072-0.026 0.021-0.054 0.047-0.085 0.054-0.156 0.035-0.317 0.035-0.474 0.073-0.142 0.034-0.294 0.027-0.435 0.064-0.129 0.033-0.265 0.053-0.39 0.051-0.247-0.005-0.502 0.003-0.742-0.075-0.117-0.038-0.238-0.041-0.355-0.067-0.135-0.030-0.265-0.086-0.395-0.135-0.068-0.026-0.127-0.025-0.187 0.017 0.025 0.045 0.068 0.043 0.1 0.061 0.142 0.078 0.302 0.093 0.454 0.133 0.099 0.026 0.19 0.073 0.292 0.090 0.354 0.062 0.711 0.075 1.069 0.072 0.041-0 0.086 0.022 0.122 0.010 0.205-0.064 0.42-0.073 0.629-0.122 0.182-0.043 0.372-0.046 0.552-0.113 0.344-0.127 0.683-0.268 1.004-0.443 0.227-0.124 0.506-0.184 0.637-0.449 0.007-0.015 0.035-0.018 0.045-0.032 0.061-0.084 0.187-0.079 0.238-0.16 0.098-0.154 0.181-0.318 0.329-0.433 0.014-0.011 0.023-0.030 0.031-0.047 0.065-0.147 0.217-0.23 0.282-0.379 0.020-0.047 0.071-0.062 0.115-0.025 0.053 0.043 0.018 0.081-0.019 0.111-0.072 0.061-0.114 0.139-0.14 0.229-0.007 0.025-0.016 0.057-0.034 0.070-0.149 0.1-0.188 0.256-0.224 0.428 0.079-0.065 0.116-0.164 0.216-0.19 0.010-0.003 0.019-0.023 0.021-0.037 0.026-0.174 0.136-0.309 0.24-0.433 0.083-0.098 0.155-0.197 0.21-0.311 0.084-0.177 0.21-0.331 0.277-0.519 0.054-0.151 0.185-0.261 0.198-0.441 0.012-0.17 0.080-0.337 0.129-0.501 0.038-0.13 0.031-0.266 0.084-0.393 0.036-0.087 0.040-0.193-0.058-0.27-0.032 0.033-0.030 0.072-0.039 0.107-0.032 0.124-0.032 0.253-0.062 0.381-0.042 0.178-0.11 0.353-0.125 0.536-0.014 0.171-0.117 0.305-0.161 0.461-0.042 0.15-0.168 0.259-0.186 0.416-0.009 0.080-0.061 0.128-0.107 0.182-0.040 0.048-0.1 0.066-0.154 0.034-0.061-0.036-0.033-0.096-0.008-0.141 0.036-0.066 0.094-0.122 0.119-0.191 0.065-0.181 0.172-0.343 0.242-0.521 0.028-0.071 0.109-0.129 0.095-0.201-0.029-0.153 0.068-0.27 0.090-0.408 0.029-0.183 0.127-0.357 0.055-0.553-0.017-0.045-0.030-0.105-0.005-0.156 0.046-0.093 0.034-0.191 0.035-0.289 0.001-0.143 0.003-0.286 0.009-0.429 0.001-0.036 0.006-0.071-0.021-0.095-0.103-0.097-0.075-0.24-0.129-0.355-0.027-0.058 0.031-0.103 0.074-0.141 0.019-0.016 0.050-0.021 0.059 0.003 0.034 0.086 0.13 0.153 0.106 0.256-0.071 0.304 0.127 0.581 0.083 0.882-0.003 0.020 0.010 0.050 0.036 0.050 0.038-0 0.033-0.036 0.035-0.060 0.022-0.186 0.060-0.365 0.014-0.56-0.024-0.101-0.010-0.212-0.076-0.307-0.050-0.072-0.029-0.175-0.091-0.239-0.043-0.045-0.116-0.067-0.009-0.124 0.037-0.020 0.019-0.077 0.004-0.116-0.027-0.070-0.051-0.124-0.078-0.178l0.005 0.012c-0.019-0.037-0.030-0.105-0.089-0.076-0.054 0.026-0.025 0.086 0.001 0.119 0.051 0.066 0.052 0.141 0.054 0.216 0.002 0.063-0.050 0.089-0.103 0.104-0.034 0.009-0.051-0.016-0.053-0.044-0.014-0.173-0.091-0.326-0.156-0.482-0.088-0.209-0.174-0.382-0.27-0.548l0.012 0.023c-0.046-0.079-0.142-0.124-0.158-0.214-0.026-0.145-0.105-0.267-0.193-0.365-0.137-0.155-0.284-0.302-0.413-0.464-0.015-0.019-0.034-0.044-0.064-0.025-0.032 0.103 0.034 0.178 0.094 0.28-0.164-0.054-0.286-0.124-0.377-0.237-0.031-0.038-0.074-0.101-0.021-0.154 0.051-0.051 0.097 0.003 0.142 0.024 0.010 0.005 0.020 0.012 0.030 0.015 0.028 0.008 0.061 0.038 0.083 0.009 0.027-0.033-0.004-0.063-0.028-0.087-0.018-0.019-0.037-0.036-0.058-0.052l-0.001-0.001c-0.254-0.183-0.506-0.368-0.763-0.546-0.065-0.045-0.13-0.091-0.195-0.135-0.084-0.058-0.15-0.138-0.244-0.184-0.215-0.104-0.436-0.191-0.669-0.244-0.070-0.016-0.14-0.038-0.193-0.091-0.043-0.044-0.065-0.088 0.007-0.126 0.024-0.012 0.051-0.021 0.047-0.055-0.005-0.037-0.035-0.046-0.065-0.053-0.114-0.026-0.228-0.052-0.343-0.075-0.032-0.007-0.074-0.025-0.096 0.005-0.029 0.040 0.023 0.055 0.041 0.080 0.049 0.070 0.033 0.145-0.044 0.144-0.161-0.001-0.325-0.011-0.478-0.073-0.025-0.010-0.043-0.033-0.044-0.061v-0c-0.002-0.037 0.028-0.050 0.055-0.064 0.040-0.020 0.092-0.005 0.134-0.051zM11.305 16.009c-0.088 0.103-0.086 0.218-0.048 0.339 0.010 0.031 0.014 0.067 0.011 0.1-0.012 0.146 0.081 0.28 0.048 0.429-0.003 0.012 0.009 0.028 0.016 0.042 0.016 0.030 0.041 0.045 0.075 0.035 0.038-0.011 0.039-0.043 0.032-0.074-0.034-0.157-0.012-0.325-0.091-0.474-0.014-0.027-0.010-0.058-0.009-0.088 0.006-0.105 0.003-0.21-0.037-0.31 0.013-0.099 0.025-0.198 0.038-0.297 0.029-0.219 0.028-0.442 0.071-0.66 0.007-0.035 0.037-0.085-0.010-0.1-0.050-0.016-0.063 0.041-0.078 0.078-0.006 0.014-0.006 0.030-0.008 0.045-0.027 0.243-0.053 0.486-0.080 0.728-0.009 0.079 0.002 0.151 0.068 0.205zM12.624 20.574c-0.225-0.126-0.461-0.407-0.738-0.64-0.039-0.032-0.060-0.077-0.091-0.115-0.129-0.155-0.236-0.325-0.39-0.463-0.126-0.113-0.198-0.274-0.27-0.429-0.019-0.041-0.029-0.091-0.059-0.122-0.16-0.17-0.236-0.384-0.321-0.592-0.137-0.337-0.304-0.665-0.325-1.039-0.001-0.011 0-0.024-0.005-0.034-0.111-0.211-0.071-0.452-0.139-0.671-0.059-0.192-0.011-0.383-0.007-0.575 0.004-0.202 0.020-0.397 0.049-0.589l-0.003 0.025c0.035-0.237 0.073-0.474 0.154-0.703 0.045-0.123 0.092-0.282 0.131-0.444l0.006-0.031c0.036-0.153 0.108-0.291 0.167-0.433 0.091-0.218 0.187-0.437 0.306-0.64 0.065-0.111 0.172-0.198 0.235-0.316 0.161-0.302 0.435-0.506 0.658-0.754 0.248-0.276 0.551-0.481 0.839-0.706 0.133-0.104 0.276-0.198 0.415-0.293 0.171-0.117 0.373-0.226 0.574-0.254 0.246-0.034 0.455-0.166 0.701-0.195 0.243-0.028 0.478-0.119 0.721-0.15 0.212-0.027 0.429-0.017 0.644-0.030 0.321-0.019 0.642-0.011 0.961 0.037 0.149 0.022 0.298 0.036 0.436 0.112 0.059 0.032 0.141 0.020 0.211 0.035 0.207 0.045 0.402 0.13 0.607 0.184 0.432 0.115 0.769 0.404 1.133 0.646 0.209 0.139 0.411 0.284 0.582 0.468 0.101 0.108 0.221 0.194 0.329 0.292 0.061 0.054 0.099 0.133 0.155 0.194 0.263 0.289 0.485 0.61 0.681 0.946 0.155 0.267 0.287 0.547 0.377 0.847 0.050 0.166 0.086 0.334 0.13 0.497 0.062 0.23 0.070 0.468 0.144 0.693 0.002 0.007 0.006 0.015 0.005 0.022-0.032 0.269 0.042 0.532 0.044 0.801 0.002 0.416-0.095 0.811-0.19 1.206-0.051 0.213-0.14 0.424-0.197 0.636-0.063 0.236-0.2 0.43-0.284 0.651-0.051 0.136-0.127 0.257-0.24 0.352-0.023 0.019-0.047 0.042-0.059 0.069-0.117 0.259-0.326 0.45-0.494 0.672-0.127 0.169-0.313 0.279-0.458 0.431-0.217 0.227-0.499 0.376-0.742 0.574-0.141 0.114-0.313 0.167-0.467 0.255-0.201 0.116-0.435 0.161-0.631 0.276-0.197 0.116-0.427 0.061-0.614 0.167-0.168 0.095-0.352 0.082-0.529 0.107-0.291 0.041-0.585 0.077-0.879 0.089-0.199 0.008-0.399-0.024-0.599-0.044-0.197-0.019-0.362-0.040-0.526-0.067l0.043 0.006c-0.193-0.032-0.385-0.075-0.568-0.146-0.222-0.086-0.447-0.163-0.667-0.254-0.31-0.128-0.588-0.307-0.948-0.562z"></path>
<path d="M18.6 18.288c-0.075 0.156-0.236 0.264-0.367 0.399-0.093 0.095-0.227 0.143-0.339 0.22-0.163 0.113-0.331 0.225-0.521 0.294-0.031 0.011-0.091 0.019-0.072 0.068s0.073 0.067 0.125 0.043c0.093-0.043 0.183-0.090 0.273-0.138 0.181-0.094 0.355-0.199 0.51-0.333 0.030-0.026 0.069-0.040 0.102-0.005 0.029 0.031 0.012 0.069-0.011 0.093-0.095 0.099-0.171 0.211-0.303 0.282-0.204 0.111-0.422 0.184-0.629 0.282-0.16 0.075-0.33 0.108-0.502 0.131-0.011 0.002-0.023-0.002-0.034 0.002-0.051 0.017-0.112 0.040-0.1 0.103 0.014 0.068 0.080 0.043 0.124 0.032 0.204-0.051 0.397-0.135 0.597-0.193 0.215-0.062 0.41-0.165 0.592-0.28 0.208-0.131 0.419-0.264 0.601-0.439 0.087-0.083 0.198-0.14 0.258-0.252 0.023-0.043 0.058-0.078 0.065-0.13 0.005-0.040 0.028-0.075 0.061-0.093 0.148-0.078 0.223-0.211 0.3-0.354 0.094-0.175 0.229-0.33 0.305-0.514 0.053-0.127 0.081-0.265 0.134-0.396 0.026-0.065 0.037-0.142 0.062-0.213 0.089-0.248 0.118-0.504 0.077-0.766-0.003-0.024-0.005-0.052-0.005-0.080 0-0.023 0.001-0.046 0.004-0.069l-0 0.003c0.011-0.126 0.002-0.253-0.039-0.37-0.086-0.244-0.045-0.511-0.135-0.754-0.018-0.049-0.004-0.112 0.066-0.123s0.097 0.043 0.101 0.097c0.020 0.212 0.136 0.399 0.147 0.613 0.012 0.239 0.041 0.479 0.014 0.718-0.007 0.066 0.008 0.127 0.002 0.191-0.031 0.35-0.084 0.696-0.249 1.011-0.041 0.079-0.045 0.165-0.086 0.243-0.13 0.245-0.26 0.489-0.42 0.717-0.041 0.059-0.088 0.115-0.148 0.157-0.092 0.065-0.096 0.191-0.192 0.258-0.273 0.191-0.465 0.479-0.758 0.645-0.099 0.056-0.199 0.109-0.302 0.157-0.258 0.12-0.514 0.251-0.796 0.3-0.227 0.040-0.442 0.153-0.683 0.124-0.061-0.007-0.127 0.016-0.188 0.036-0.203 0.067-0.408 0.062-0.615 0.034-0.201-0.028-0.406-0.037-0.602-0.086-0.194-0.048-0.393-0.086-0.579-0.173-0.203-0.094-0.425-0.152-0.603-0.291-0.226-0.176-0.489-0.313-0.625-0.587-0.039-0.078-0.12-0.068-0.18-0.055-0.050 0.011-0.024 0.069-0.007 0.105 0.022 0.047 0.094 0.099 0.031 0.142-0.053 0.037-0.102-0.032-0.135-0.075-0.082-0.105-0.2-0.171-0.284-0.274-0.042-0.052-0.068-0.107-0.088-0.168-0.013-0.038-0.015-0.078 0.027-0.1s0.070 0.002 0.098 0.032c0.061 0.066 0.108 0.146 0.186 0.195 0.025 0.015 0.056 0.041 0.083 0.019 0.032-0.027-0.001-0.062-0.017-0.078-0.12-0.129-0.149-0.308-0.264-0.444-0.141-0.167-0.207-0.383-0.291-0.584-0.061-0.146-0.131-0.288-0.18-0.438-0.054-0.166 0.015-0.328 0.030-0.492 0.006-0.067 0.089-0.072 0.125-0.010 0.038 0.065 0.061 0.134 0.065 0.214 0.017 0.361 0.148 0.69 0.298 1.012 0.024 0.051 0.055 0.097 0.070 0.153 0.045 0.161 0.147 0.287 0.255 0.409 0.015 0.017 0.034 0.032 0.043 0.052 0.157 0.382 0.498 0.565 0.818 0.777 0.111 0.074 0.209 0.174 0.339 0.214 0.277 0.086 0.539 0.214 0.826 0.278 0.23 0.052 0.458 0.070 0.692 0.072 0.072 0 0.143-0.008 0.214-0.018 0.104-0.013 0.205-0.028 0.311 0.014 0.073 0.029 0.166 0.030 0.215-0.067 0.024-0.048 0.014-0.074-0.041-0.070-0.064 0.004-0.137-0.003-0.189 0.025-0.091 0.049-0.159-0.007-0.237-0.021-0.027-0.005-0.050-0.022-0.051-0.053-0.001-0.040 0.030-0.045 0.059-0.056 0.137-0.054 0.283-0.062 0.424-0.060 0.268 0.004 0.505-0.127 0.763-0.155 0.031-0.003 0.050-0.021 0.040-0.054-0.012-0.036-0.038-0.054-0.077-0.052-0.148 0.008-0.29 0.052-0.435 0.073-0.212 0.030-0.421 0.132-0.63 0.101-0.278-0.041-0.566-0.018-0.837-0.112-0.095-0.033-0.198-0.044-0.298-0.063-0.238-0.045-0.422-0.193-0.613-0.326-0.092-0.065-0.189-0.125-0.275-0.197-0.299-0.249-0.536-0.546-0.654-0.926-0.019-0.062-0.017-0.125 0.048-0.158 0.061-0.031 0.115 0.002 0.145 0.054 0.086 0.15 0.183 0.293 0.245 0.456 0.038 0.1 0.091 0.188 0.179 0.255 0.093 0.070 0.182 0.144 0.262 0.232 0.104 0.116 0.238 0.19 0.386 0.243 0.212 0.075 0.42 0.163 0.631 0.24 0.247 0.090 0.509 0.040 0.762 0.073 0.302 0.039 0.583-0.057 0.867-0.126 0.361-0.091 0.676-0.254 0.942-0.474l-0.004 0.003c0.264-0.216 0.52-0.446 0.734-0.732 0.239-0.32 0.365-0.663 0.454-1.035 0.013-0.054 0.043-0.105 0.065-0.157 0.021-0.049 0.051-0.090 0.111-0.071 0.055 0.017 0.075 0.068 0.063 0.119-0.039 0.157-0.055 0.322-0.134 0.467-0.028 0.051-0.051 0.104-0.053 0.16-0.006 0.143-0.068 0.266-0.152 0.373-0.13 0.167-0.233 0.355-0.396 0.526z"></path>
<path d="M20.206 17.931c-0.030 0.034-0.069 0.067-0.114 0.032-0.041-0.032-0.021-0.075 0.004-0.112 0.152-0.225 0.241-0.481 0.306-0.736 0.059-0.229 0.098-0.471 0.088-0.715-0.001-0.037 0.008-0.075 0.014-0.112 0.018-0.109 0.027-0.217-0.020-0.322-0.068-0.153-0.012-0.315-0.032-0.472-0.019-0.152-0.023-0.299-0.090-0.449-0.056-0.125-0.071-0.274-0.115-0.411-0.045-0.14-0.102-0.272-0.164-0.405-0.044-0.093-0.050-0.202-0.11-0.293-0.021-0.033-0.005-0.077 0.040-0.090 0.048-0.014 0.074 0.014 0.099 0.054 0.106 0.167 0.146 0.362 0.225 0.539 0.083 0.184 0.111 0.382 0.176 0.571 0.062 0.179 0.090 0.374 0.107 0.566s0.020 0.386 0.037 0.576c0.014 0.159-0.010 0.306-0.026 0.459-0.035 0.344-0.086 0.679-0.273 0.984-0.062 0.102-0.059 0.241-0.152 0.336z"></path>
<path d="M19.615 13.485c0.038 0.056 0.101 0.119 0.129 0.195 0.085 0.225 0.243 0.41 0.332 0.631 0.090 0.224 0.148 0.458 0.207 0.692 0.106 0.422 0.099 0.852 0.112 1.281 0.004 0.132-0.030 0.263-0.079 0.388-0.007 0.018-0.011 0.038-0.035 0.039-0.029 0.001-0.037-0.022-0.042-0.044-0.023-0.101-0.028-0.204-0.005-0.305 0.017-0.076 0.016-0.15 0.004-0.226-0.023-0.143-0.040-0.285-0.022-0.431 0.016-0.138-0.018-0.272-0.045-0.406-0.021-0.104-0.039-0.209-0.059-0.313-0.043-0.221-0.151-0.418-0.251-0.616-0.041-0.081-0.094-0.152-0.11-0.246-0.021-0.126-0.13-0.2-0.193-0.302-0.048-0.078-0.095-0.155-0.109-0.247-0.007-0.048 0.006-0.091 0.053-0.117 0.038-0.020 0.073-0.016 0.114 0.025zM18.797 18.204c0.218-0.235 0.384-0.494 0.494-0.783 0.115-0.301 0.213-0.615 0.215-0.933 0.002-0.214 0.063-0.425 0.029-0.638-0.001-0.007-0.001-0.015-0.001-0.024 0-0.012 0.001-0.023 0.003-0.034l-0 0.001c0.009-0.066 0.025-0.143 0.102-0.143s0.064 0.083 0.077 0.14c0.063 0.266-0.008 0.532-0.025 0.796-0.017 0.273-0.119 0.535-0.221 0.794-0.096 0.246-0.249 0.459-0.38 0.683-0.108 0.185-0.255 0.346-0.4 0.506-0.034 0.038-0.076 0.078-0.125 0.038-0.056-0.045-0.018-0.095 0.016-0.138 0.073-0.092 0.148-0.183 0.216-0.267zM14.068 19.292c-0.223-0.162-0.444-0.327-0.614-0.545-0.151-0.192-0.315-0.376-0.429-0.594-0.025-0.047-0.059-0.102-0.001-0.138 0.066-0.041 0.11 0.020 0.133 0.066 0.084 0.17 0.228 0.299 0.314 0.468 0.075 0.148 0.212 0.246 0.347 0.334 0.117 0.077 0.218 0.152 0.314 0.233l-0.005-0.004c0.16 0.134 0.34 0.219 0.542 0.283 0.226 0.072 0.46 0.099 0.683 0.179 0.1 0.036 0.2 0.003 0.299 0.019 0.072 0.012 0.167 0.018 0.164 0.101-0.003 0.081-0.111 0.080-0.164 0.063-0.229-0.072-0.468-0.049-0.701-0.124-0.28-0.090-0.546-0.21-0.818-0.316-0.021-0.008-0.041-0.017-0.062-0.026zM18.765 19.297c-0.067 0.068-0.176 0.098-0.168 0.218 0 0.004-0.011 0.011-0.018 0.011-0.275 0.034-0.464 0.24-0.7 0.352-0.073 0.034-0.149 0.065-0.222 0.085-0.171 0.045-0.321 0.114-0.456 0.204l0.005-0.003c-0.006 0.004-0.013 0.007-0.021 0.008h-0c-0.379-0.002-0.737 0.148-1.116 0.151-0.072 0.001-0.145 0.005-0.217 0.007-0.054 0.002-0.108 0.001-0.155-0.031-0.064-0.045-0.059-0.093 0.011-0.125 0.014-0.006 0.029-0.016 0.043-0.015 0.178 0.007 0.348-0.066 0.528-0.048 0.219 0.022 0.431-0.037 0.644-0.073 0.178-0.030 0.337-0.118 0.514-0.16 0.155-0.037 0.316-0.102 0.463-0.183 0.129-0.071 0.269-0.117 0.395-0.2 0.095-0.063 0.189-0.126 0.272-0.204 0.037-0.035 0.079-0.059 0.123-0.082 0.029-0.015 0.063-0.046 0.092-0.011 0.030 0.037-0 0.071-0.019 0.099z"></path>
<path d="M20.013 18.144c-0.101 0.281-0.242 0.523-0.42 0.748-0.122 0.155-0.265 0.281-0.417 0.402-0.047 0.037-0.088 0.082-0.116 0.136-0.003 0.007-0.006 0.017-0.011 0.019-0.121 0.039-0.186 0.158-0.299 0.206-0.081 0.034-0.152 0.072-0.209 0.142-0.087 0.108-0.23 0.14-0.349 0.201-0.155 0.081-0.311 0.164-0.474 0.232-0.059 0.024-0.122 0.041-0.18 0.066s-0.121 0.034-0.142-0.037c-0.021-0.069 0.035-0.129 0.095-0.128 0.125 0.002 0.228-0.046 0.332-0.099 0.18-0.092 0.369-0.166 0.539-0.278 0.050-0.033 0.096-0.071 0.161-0.077 0.039-0.003 0.087-0.023 0.090-0.058 0.008-0.101 0.099-0.109 0.155-0.158 0.147-0.13 0.322-0.23 0.431-0.402 0.066-0.104 0.162-0.189 0.227-0.293 0.095-0.153 0.256-0.255 0.332-0.417 0.049-0.104 0.109-0.175 0.216-0.208 0.006-0.002 0.014 0 0.040 0.001z"></path>
<path d="M18.993 18.951c0.166-0.205 0.325-0.417 0.501-0.613 0.102-0.113 0.111-0.257 0.169-0.383 0.030-0.064 0.051-0.128 0.114-0.173 0.050-0.037 0.075-0.101 0.098-0.16 0.056-0.149 0.107-0.3 0.166-0.448 0.023-0.058 0.042-0.156 0.125-0.127 0.076 0.026 0.049 0.121 0.026 0.179-0.121 0.304-0.232 0.613-0.407 0.892-0.193 0.311-0.333 0.525-0.476 0.736l0.052-0.081c-0.075 0.112-0.197 0.179-0.292 0.273-0.033 0.033-0.094 0.071-0.139 0.020-0.052-0.058 0.021-0.089 0.064-0.115zM14.633 20.091c-0.052-0.048-0.104-0.074-0.080-0.127 0.029-0.062 0.087-0.035 0.129-0.017 0.244 0.103 0.503 0.146 0.762 0.189 0.047 0.008 0.119 0.013 0.105 0.090-0.015 0.082-0.075 0.059-0.133 0.047-0.162-0.032-0.327-0.053-0.489-0.087-0.109-0.023-0.218-0.050-0.294-0.095z"></path>
</symbol>
<symbol id="icon-stars2" viewBox="0 0 19 32">
<path fill="#c9cfda" style="fill: var(--color1, #c9cfda)" d="M10.934 9.704l-3.266 1.823-0.378 3.771-2.71-2.597-3.64 0.802 1.591-3.429-1.871-3.276 3.693 0.479 2.483-2.827 0.692 3.724 3.406 1.529z"></path>
</symbol>
<symbol id="icon-stars1" viewBox="0 0 190 32">
<path fill="#114837" style="fill: var(--color2, #114837)" d="M7.002 26.846l-2.854 0.488 2.136 1.893-0.402 2.773 2.522-1.379 2.606 1.227-0.578-2.745 2.012-2.016-2.879-0.317-1.362-2.473-1.202 2.549z"></path>
<path fill="#f6d500" style="fill: var(--color3, #f6d500)" d="M20.105 17.778l0.402-2.774-2.136-1.893 2.853-0.488 1.202-2.549 1.362 2.473 2.879 0.317-2.012 2.016 0.578 2.745-2.605-1.227-2.522 1.379z"></path>
<path fill="#80a08d" style="fill: var(--color4, #80a08d)" d="M38.519 6.495l3.712-2.158 0.358-4.337 3.163 2.927 4.162-0.993-1.758 3.968 2.215 3.723-4.249-0.475-2.793 3.295-0.869-4.261-3.94-1.688zM141.63 8.866l3.712-2.158 0.358-4.337 3.163 2.927 4.162-0.993-1.758 3.968 2.215 3.723-4.249-0.475-2.793 3.295-0.869-4.261-3.94-1.688z"></path>
<path fill="#f7b8ae" style="fill: var(--color5, #f7b8ae)" d="M82.962 2.633l-2.369 1.013 2.203 1.368 0.181 2.69 1.915-1.787 2.481 0.649-1.020-2.473 1.353-2.288-2.545 0.259-1.645-2.064-0.552 2.633z"></path>
</symbol>
</defs>
</svg>
